<svg fill="url(#gradient)" width="64px" height="64px" viewBox="0 0 22.00 22.00" xmlns="http://www.w3.org/2000/svg" id="memory-email">
    <defs>
        <linearGradient id="gradient" x1="20.43" x2="29.588" y1="20.594" y2="20.594" gradientUnits="userSpaceOnUse">
            <stop offset="0" stop-color="#6dc7ff"></stop>
            <stop offset="1" stop-color="#e6abff"></stop>
        </linearGradient>
    </defs>
    <g id="SVGRepo_bgCarrier" stroke-width="0"/>
    <g id="SVGRepo_tracerCarrier" stroke-linecap="round" stroke-linejoin="round"/>
    <g id="SVGRepo_iconCarrier">
        <path d="M1 5H2V4H20V5H21V18H20V19H2V18H1V5M3 17H19V9H18V10H16V11H14V12H12V13H10V12H8V11H6V10H4V9H3V17M19 6H3V7H5V8H7V9H9V10H13V9H15V8H17V7H19V6Z"/>
    </g>
</svg>