<!DOCTYPE svg PUBLIC "-//W3C//DTD SVG 1.1//EN" "http://www.w3.org/Graphics/SVG/1.1/DTD/svg11.dtd">

<!-- Uploaded to: SVG Repo, www.svgrepo.com, Transformed by: SVG Repo Mixer Tools -->
<svg fill="#ee00ff" width="64px" height="64px" viewBox="-2.2 -2.2 26.40 26.40" xmlns="http://www.w3.org/2000/svg" id="memory-email" stroke="#ee00ff" stroke-width="0.5279999999999999" transform="matrix(-1, 0, 0, 1, 0, 0)rotate(0)">

<g id="SVGRepo_bgCarrier" stroke-width="0" transform="translate(0,0), scale(1)"/>

<g id="SVGRepo_tracerCarrier" stroke-linecap="round" stroke-linejoin="round" stroke="#00d3d6" stroke-width="1.936">

<path d="M1 5H2V4H20V5H21V18H20V19H2V18H1V5M3 17H19V9H18V10H16V11H14V12H12V13H10V12H8V11H6V10H4V9H3V17M19 6H3V7H5V8H7V9H9V10H13V9H15V8H17V7H19V6Z"/>

</g>

<g id="SVGRepo_iconCarrier">

<path d="M1 5H2V4H20V5H21V18H20V19H2V18H1V5M3 17H19V9H18V10H16V11H14V12H12V13H10V12H8V11H6V10H4V9H3V17M19 6H3V7H5V8H7V9H9V10H13V9H15V8H17V7H19V6Z"/>

</g>

</svg>