<?xml version="1.0" encoding="utf-8"?>
<!-- Generator: Adobe Adobe Illustrator 24.2.0, SVG Export Plug-In . SVG Version: 6.00 Build 0)  -->
<svg version="1.1" xmlns="http://www.w3.org/2000/svg" xmlns:xlink="http://www.w3.org/1999/xlink" x="0px" y="0px" width="1960px"
	 height="1760px" viewBox="0 0 1960 1760" style="enable-background:new 0 0 1960 1760;" xml:space="preserve">
<style type="text/css">
	.st0{display:none;}
	.st1{fill:url(#SVGID_1_);}
	.st2{fill:url(#SVGID_2_);}
	.st3{fill:url(#SVGID_3_);}
	.st4{fill:#05CFD0;}
	.st5{fill:#EBBDFE;}
	.st6{fill:url(#SVGID_4_);}
	.st7{fill:url(#SVGID_5_);}
	.st8{fill:url(#SVGID_6_);}
	.st9{fill:url(#SVGID_7_);}
	.st10{fill:none;stroke:#EBBDFE;stroke-width:7;stroke-miterlimit:10;}
	.st11{fill:#EBBDFE;stroke:#FFFFFF;stroke-miterlimit:10;}
</style>
<g id="Layer_2" class="st0">
</g>
<g id="Layer_4">
	<g>
		<g>
			<g>
				<radialGradient id="SVGID_1_" cx="1040.9176" cy="1003.9028" r="1044.2954" gradientUnits="userSpaceOnUse">
					<stop  offset="0" style="stop-color:#05CFD0"/>
					<stop  offset="1" style="stop-color:#04D1D1;stop-opacity:0"/>
				</radialGradient>
				<polygon class="st1" points="284.67,598.92 153.47,732.26 779.4,930.34 805.21,883.49 				"/>
				<radialGradient id="SVGID_2_" cx="1040.9176" cy="1003.9028" r="1044.2954" gradientUnits="userSpaceOnUse">
					<stop  offset="0" style="stop-color:#05CFD0"/>
					<stop  offset="1" style="stop-color:#04D1D1;stop-opacity:0"/>
				</radialGradient>
				<path class="st2" d="M1077.65,993.39l14-14.23c-3.68-5.48-8.3-10.39-13.66-14.57l239.95-575.77l-29.78-238.1l-223.34,805.8
					c-9.42-4.42-20.12-6.93-31.49-6.93c-0.91,0-1.82,0.03-2.72,0.06l8.88-855.29l-57.54,234.29l40.86,621.66
					c-7.88,1.1-15.31,3.4-22.05,6.7L673.61,63.27l-71.2,248.44l384.04,654.71c-3.79,3.23-7.16,6.85-10.03,10.78
					c-23.06-12.48-62.16-33.71-77.17-42.25c4.85,22.32,27.34,41.98,27.34,41.98l42.57,13.47c-2.46,6.3-3.81,13.06-3.81,20.1
					c0,12.41,4.14,23.95,11.26,33.57c26.93-3.12,32.04-16.01,55.74-16.01c14.08,0,28.17,39.5,39.02,32.94
					c18.09-10.94,29.98-29.48,29.98-50.5c0-4.98-0.68-9.82-1.94-14.45c-14.28,8.95-24.16,15.15-24.16,15.15L1077.65,993.39z"/>
				<radialGradient id="SVGID_3_" cx="1040.9176" cy="1003.9028" r="1044.2954" gradientUnits="userSpaceOnUse">
					<stop  offset="0" style="stop-color:#05CFD0"/>
					<stop  offset="1" style="stop-color:#04D1D1;stop-opacity:0"/>
				</radialGradient>
				<path class="st3" d="M1670.44,390.83l-578.78,588.32c3.48,5.18,6.11,10.86,7.75,16.89c28.75-18.03,75.37-47.26,95.32-59.77
					c23.97-61.49,69.12-159.63,82.02-51.43c123.53-77.46,489.78-307.12,489.78-307.12L1670.44,390.83z"/>
			</g>
		</g>
	</g>
	<ellipse class="st4" cx="1033.34" cy="1009.65" rx="68" ry="61.75"/>
</g>
<g id="Layer_1">
	<g>
		<g>
			<g>
				<path class="st5" d="M572.78,815.93c0.27,0.38,0.45,0.59,0.45,0.59C573.08,816.33,572.93,816.13,572.78,815.93z"/>
				<path class="st5" d="M556.84,835.58c-1.6-0.2-3.15-0.34-4.64-0.44C554.94,835.67,556.84,835.58,556.84,835.58z"/>
				<ellipse class="st5" cx="583.8" cy="838.84" rx="18.5" ry="18.41"/>
				<path class="st5" d="M610.34,847.08c-3.96-1.19-6.83-1.57-6.83-1.57C605.91,846.1,608.19,846.63,610.34,847.08z"/>
				<path class="st5" d="M563.21,854.67c0.42-0.73,0.62-1.17,0.62-1.17C563.63,853.89,563.42,854.28,563.21,854.67z"/>
				<path class="st5" d="M590.52,866.79c-0.44-3.56-1.33-5.95-1.33-5.95C589.66,862.84,590.08,864.84,590.52,866.79z"/>
				<path class="st5" d="M601.81,817.75c-0.37,0.39-0.56,0.63-0.56,0.63S601.47,818.16,601.81,817.75z"/>
				<ellipse class="st5" cx="393.52" cy="1159.68" rx="12.42" ry="12.37"/>
				<path class="st5" d="M400.99,1180.4c-0.32-2.6-0.95-4.35-0.95-4.35C400.37,1177.51,400.67,1178.97,400.99,1180.4z"/>
				<path class="st5" d="M415.15,1165.97c-2.82-0.87-4.87-1.14-4.87-1.14C412,1165.26,413.62,1165.64,415.15,1165.97z"/>
				<path class="st5" d="M745.97,1164.33c-14.6-25.44-45.19-33.55-63.94,1.94c-40.43,76.5-191.33-22.18-191.33-22.18
					c73.18-72.84,44.24-231.33,44.24-231.33c42.46,1.76,111.22,3.44,139.29-38.87c21.57-32.5-20.67-101.45-49.55-111.02
					C546.6,736.99,482.4,806.9,494.8,890.84c-45.94,9.05-111.19-27.64-117.14-53.1c-10.32-44.17-79.28-48.11-24.72,18.11
					c54.56,66.22,149.86,56.92,149.86,56.92c30.1,160.6-44.15,206.09-44.15,206.09c-48.2-32.04-89.73-33.89-116.99,0.22
					c-23.55,29.48-1.92,86.35,23.01,99.28c53.42,27.7,83.28-13.37,111.77-51.45c58.73,46.56,229.5,118.79,267.02,64.29
					c0.96-1.39,0.54-0.7,1.36-2.11C718.73,1206.86,714.03,1171.25,745.97,1164.33z M552.2,835.14c-7.72-1.5-22.07-8-19.19-35.73
					c32.65-7.98,33.42,7.91,39.77,16.52c-2.49-3.48-13.34-21.66,19.78-35.44c20.94,20.38,11.75,34.24,9.24,37.26
					c3.13-3.32,19.24-17.95,42.19,4.39c-4.6,26.05-13.54,29.11-33.66,24.93c10.66,3.22,29.2,12.41,20.63,36.45
					c-33.33,9.12-37.33-2.75-40.45-16.73c1.12,8.96-0.6,25.41-26.44,30.29c-20.44-11.28-8.75-27.78-0.87-42.42
					c-2.82,4.89-15.32,22.73-40.58,6.35C522.63,841.78,532.75,833.9,552.2,835.14z M415.15,1165.97
					c7.63,2.35,20.94,9.06,14.79,26.68c-23.87,6.68-26.73-2.01-28.96-12.25c0.8,6.56-0.42,18.6-18.93,22.18
					c-14.64-8.26-6.26-20.34-0.62-31.06c-2,3.56-10.96,16.66-29.06,4.66c0-14.1,7.26-19.86,21.22-18.94
					c-5.51-1.08-15.87-5.79-13.79-26.16c23.38-5.84,23.93,5.79,28.47,12.09c-1.78-2.55-9.55-15.86,14.17-25.94
					c15.03,14.96,8.37,25.11,6.61,27.29c2.2-2.39,13.75-13.2,30.22,3.2C435.99,1166.8,429.58,1169.04,415.15,1165.97z"/>
				<path class="st5" d="M388.29,1143.17c0.2,0.28,0.32,0.43,0.32,0.43C388.5,1143.47,388.4,1143.32,388.29,1143.17z"/>
				<path class="st5" d="M409.06,1144.52c-0.25,0.27-0.39,0.44-0.39,0.44S408.83,1144.81,409.06,1144.52z"/>
				<path class="st5" d="M381.44,1171.52c0.3-0.53,0.44-0.85,0.44-0.85C381.74,1170.96,381.59,1171.24,381.44,1171.52z"/>
				<path class="st5" d="M376.88,1157.56c-1.13-0.15-2.21-0.24-3.27-0.31C375.54,1157.62,376.88,1157.56,376.88,1157.56z"/>
			</g>
		</g>
	</g>
	<path class="st5" d="M1238.55,1126.02c4.05,8.72,10.68,24.85,18.67,44.64c17.57,6.22,22.29,22.44,15.49,38.66
		c15.73,38.58,31.65,75.82,37.55,80.68c0,0,22.07-112.89,59.01-112.89c34.54,0,8.85-58.66-20.71-51.07
		c-29.56,7.59-42.06,119.17-42.06,119.17s-31.3-113.09-55.89-147.92c-11.98-16.97-72.45-37.45-72.45-37.45
		S1214.7,1074.71,1238.55,1126.02z"/>
	<path class="st5" d="M1464.8,1166.07c7.61,31.88,41.63,114.76,52.74,123.91c0,0,23.89-125.9,46.75-124.73
		c15.15,0.77,34.87,37.06,34.87,37.06s-10.46-75.05-43.31-76.29c-30.5-1.16-42.06,119.17-42.06,119.17s-19.21-76.47-32.47-103.63
		C1465.89,1109.97,1457.56,1135.72,1464.8,1166.07z"/>
	<path class="st5" d="M1414.13,1271.16c-5.92-29.13-14.4-104.6-7.08-125.49c13.44-38.31,38.74-26.67,37.27,19.65
		c-0.47,14.73-12.86,102.35-15.4,115.98C1426.4,1294.94,1417.43,1287.39,1414.13,1271.16z"/>
	<g>
		<g>
			<path class="st5" d="M1078.22,1227.04c3.64-101.9,5.91-341.79,4.92-366.52c-1.58-39.31-29.95-91.86-34.42-9.54
				c-2.71,50,11.05,292.73,11.05,292.73c-6.69-28.22-51.26-40.65-88.82-37.99c-35.69,2.52-73.45,33.29-73.45,99.81
				c0,8.99,0.82,15.58,2.85,23.39c31.2,24.11,30.02,29.79,26.78,45.31c11.01,9.36,24.48,15.49,39.28,18.43
				c1.84-20.55,2.88-47.26-2.37-59.21c-3.06-6.96-16.35-1.44-22.07-25.74c-5.63-23.87,0.71-37.22,11.6-39.84
				c35.64-8.58,55.51,14.67,25.35,14.67c-24.51,0-27.39,4.91-16.58,11.06c7.54,4.29,51.58,2.99,59.17,17.11
				c5.41,10.06,4.22,15.24-9.92,23.92c-14.14,8.68-18.97,2.7-17.97,19.48c0.54,9,0.8,25.12,1.34,40.16
				c49.21-5.49,64.35-64.4,64.35-64.4c-2.7,54.49,10.16,63.17,15.54,42.85C1061.7,1268.21,1052.27,1234.12,1078.22,1227.04z
				 M957.14,1163.7c-0.63-14.99,3.44-23.93,9.36-24.16c5.94-0.23,11.49,8.37,12.15,23.44c0,0.1,0.01,0.2,0.01,0.31
				C972.31,1162.19,964.85,1162.22,957.14,1163.7z M969.08,1190.69c-3.49,0.14-5.89-0.96-7.58-3c3.26-1.27,9.15-1.31,15.21-1.55
				C975.23,1188.88,972.85,1190.54,969.08,1190.69z M999.46,1170.84c-0.98,13.09-1.89,23.69-10.59,23.1
				c-4.78-0.32-6.75-3.36-7.42-8.04c7.76-0.56,14.74-2.09,15.59-7.68c0.97-6.43-5.11-11.62-14.56-14.1
				c1.61-9.6,5.27-14.89,9.41-14.61C996.76,1149.82,1000.44,1157.75,999.46,1170.84z M1006.37,1197.32
				c-8.55-1.43-6.49-10.9-4.33-22.66c2.16-11.76,6.83-18.06,11.38-17.3c4.55,0.76,7.25,8.29,5.09,20.05
				C1016.36,1189.17,1014.5,1198.68,1006.37,1197.32z M1035.33,1186.47c-2.73,9.46-5.05,17.09-11.95,15.28
				c-7.26-1.91-4.78-9.5-2.05-18.96c2.73-9.45,7.23-14.22,11.1-13.2C1036.29,1170.6,1038.06,1177.01,1035.33,1186.47z"/>
		</g>
	</g>
	<path class="st5" d="M1096.73,753.64c2.54-13.85,8.05-21.28,13.41-20.38c5.36,0.89,8.55,9.77,6,23.62s-4.74,25.06-14.31,23.47
		C1091.76,778.67,1094.19,767.5,1096.73,753.64z"/>
	<path class="st5" d="M1119.46,763.22c3.22-11.14,8.52-16.75,13.08-15.56c4.56,1.2,6.64,8.75,3.42,19.89
		c-3.22,11.14-5.94,20.14-14.08,18.01C1113.31,783.31,1116.23,774.36,1119.46,763.22z"/>
	<g>
		<path class="st5" d="M1052.23,923.42c0,0,7.21-77.24-3.55-101.71c-3.61-8.21-19.26-1.7-26.01-30.33
			c-6.63-28.13,0.83-43.85,13.67-46.94c42-10.11,65.41,17.28,29.88,17.28c-28.88,0-32.27,5.78-19.54,13.03
			c8.88,5.06,60.78,3.53,69.72,20.16c6.38,11.85,4.98,17.96-11.69,28.19c-16.67,10.23-22.35,3.18-21.17,22.96s-8.79,68.8-5.66,84.17
			C1081.03,945.59,1052.23,923.42,1052.23,923.42z"/>
	</g>
	<path class="st5" d="M1086.43,738c4.6-11.78,12.95-47.36,13.66-58.98c2.81-45.78-13.71-36.34-20.13,1.07
		c-2.98,17.38-3.88,47.56-16.7,47.56c-9.08,0-13.31-39.6-15.56-51.64c-6.22-33.26-24.94-28.64-19.23-3.91s10.27,55.84,12.52,62.04
		c2.25,6.21,13.16,0.78,21.98,1.16C1071.79,735.68,1083.91,744.46,1086.43,738z"/>
	<g>
		<g>
			<g>
				<linearGradient id="SVGID_4_" gradientUnits="userSpaceOnUse" x1="1107.3888" y1="1226.6891" x2="1217.0223" y2="1176.5465">
					<stop  offset="0" style="stop-color:#EBBDFE"/>
					<stop  offset="0.1261" style="stop-color:#E7BDFD"/>
					<stop  offset="0.2578" style="stop-color:#DABEFB"/>
					<stop  offset="0.392" style="stop-color:#C5C0F6"/>
					<stop  offset="0.5279" style="stop-color:#A8C2F1"/>
					<stop  offset="0.6653" style="stop-color:#82C5E9"/>
					<stop  offset="0.8038" style="stop-color:#54C9E0"/>
					<stop  offset="0.9407" style="stop-color:#1FCDD5"/>
					<stop  offset="1" style="stop-color:#05CFD0"/>
				</linearGradient>
				<path class="st6" d="M1228.96,1211.11c-5.19-27.98-29.81-49.18-59.42-49.18c-33.38,0-60.44,26.94-60.44,60.17
					c0,8.69,1.87,16.95,5.2,24.41C1158.91,1243.01,1189.75,1235.36,1228.96,1211.11z"/>
				<linearGradient id="SVGID_5_" gradientUnits="userSpaceOnUse" x1="1154.6105" y1="1286.0828" x2="1219.4834" y2="1256.4122">
					<stop  offset="0" style="stop-color:#EBBDFE"/>
					<stop  offset="0.1261" style="stop-color:#E7BDFD"/>
					<stop  offset="0.2578" style="stop-color:#DABEFB"/>
					<stop  offset="0.392" style="stop-color:#C5C0F6"/>
					<stop  offset="0.5279" style="stop-color:#A8C2F1"/>
					<stop  offset="0.6653" style="stop-color:#82C5E9"/>
					<stop  offset="0.8038" style="stop-color:#54C9E0"/>
					<stop  offset="0.9407" style="stop-color:#1FCDD5"/>
					<stop  offset="1" style="stop-color:#05CFD0"/>
				</linearGradient>
				<path class="st7" d="M1150.13,1279.07c6.09,2.06,12.62,3.19,19.41,3.19c20.26,0,38.17-9.93,49.14-25.15
					C1195.02,1268.71,1170.51,1275.53,1150.13,1279.07z"/>
			</g>
		</g>
	</g>
	<g>
		<g>
			<g>
				<linearGradient id="SVGID_6_" gradientUnits="userSpaceOnUse" x1="817.1605" y1="1190.5818" x2="869.176" y2="1255.0835">
					<stop  offset="0" style="stop-color:#EBBDFE"/>
					<stop  offset="0.1006" style="stop-color:#E5BDFD"/>
					<stop  offset="0.2336" style="stop-color:#D4BFF9"/>
					<stop  offset="0.3847" style="stop-color:#B9C1F4"/>
					<stop  offset="0.5493" style="stop-color:#93C4EC"/>
					<stop  offset="0.7248" style="stop-color:#61C8E2"/>
					<stop  offset="0.9066" style="stop-color:#26CCD7"/>
					<stop  offset="1" style="stop-color:#05CFD0"/>
				</linearGradient>
				<path class="st8" d="M876.34,1260.54c4.17-6.1,7.28-13.06,8.98-20.7c7.13-32.08-13.12-63.74-45.23-70.72
					c-28.89-6.28-57.52,9.56-68.17,36.16C806.01,1234.28,836.09,1251.4,876.34,1260.54z"/>
				<linearGradient id="SVGID_7_" gradientUnits="userSpaceOnUse" x1="794.3754" y1="1256.793" x2="822.5472" y2="1291.7275">
					<stop  offset="0" style="stop-color:#EBBDFE"/>
					<stop  offset="0.1006" style="stop-color:#E5BDFD"/>
					<stop  offset="0.2336" style="stop-color:#D4BFF9"/>
					<stop  offset="0.3847" style="stop-color:#B9C1F4"/>
					<stop  offset="0.5493" style="stop-color:#93C4EC"/>
					<stop  offset="0.7248" style="stop-color:#61C8E2"/>
					<stop  offset="0.9066" style="stop-color:#26CCD7"/>
					<stop  offset="1" style="stop-color:#05CFD0"/>
				</linearGradient>
				<path class="st9" d="M774.74,1255.54c7.92,14.66,21.94,25.91,39.54,29.73c7.91,1.72,15.8,1.77,23.31,0.41
					C813.17,1277.97,791.42,1266.69,774.74,1255.54z"/>
			</g>
		</g>
	</g>
	<path class="st5" d="M1074.22,1232.24c-10.97,5.93-24.69,47.02,44.22,47.02c25.91,0,84.96-9.97,128.06-42.42
		c42.76-32.19,24.2-63.4,7.18-63.4c-37.97,0-47.61,8.06-11.62,12.48c10.91,1.34,9.36,14.07-3.52,22.16
		c-54.61,34.32-82.85,36.98-123.81,40.58c-20.36,1.79-32.5-1.24-24.01-8.11C1114.15,1221.61,1098.23,1219.26,1074.22,1232.24z"/>
	<path class="st5" d="M753.58,1168.08c-8.89-2.65-50.17,15.65-2.1,63.51c18.07,17.99,66.25,52.05,119.06,59.34
		c52.39,7.23,61.31-27.42,49.44-39.24c-26.49-26.37-38.86-27.44-16.85,0.64c6.67,8.51-3.33,16.31-17.99,13.02
		c-62.15-13.98-83.71-31.74-114.81-57.67c-15.46-12.89-21.8-23.43-11.06-22.33C788.88,1188.4,783.52,1177,753.58,1168.08z"/>
	<g>
		<path class="st5" d="M1411.06,1064.24c4.15-7.16-32.06-6.93-11.05-23.96c20.9-16.94,17.22,16.04,21.76,13.9
			c7.47-3.52-9.77-32.88,15.59-24.81c24.55,7.81-4.38,23.27-1.18,26.35c4.77,4.6,18.11-24.48,25.24,0.29
			c5.01,17.39-19.96,7.88-21.88,13.22c-1.59,4.42,34.79-0.57,15.36,21c-19.5,21.65-16.89-13.17-23.97-9.83
			c-6.83,3.22,11.72,32.37-16.6,22.28c-29.75-10.6,7.32-23.25,1.69-28.46c-7.14-6.62-18.4,27.93-27.45,0.93
			C1378.49,1045.08,1408.74,1068.24,1411.06,1064.24z"/>
	</g>
	<g>
		<path class="st5" d="M1413.86,891.85c-2.57,10.35,42.2-2.82,22.28,25.75c-19.81,28.42-27.09-13.74-31.94-9.48
			c-7.99,7.01,23.9,37.25-10.4,36.28c-33.21-0.94-2.93-30.37-8-33.06c-7.56-4-13.65,36.76-31.36,8.62
			c-12.44-19.76,21.9-16.86,22.36-24.16c0.38-6.05-42.88,13.08-26.56-20.55c16.38-33.74,25.65,10.3,33.22,3.65
			c7.31-6.41-26.14-35.93,12.56-33.5c40.66,2.55-0.72,31.4,8.12,35.86c11.21,5.66,12.77-41.14,33.67-10.92
			C1461.08,903.99,1415.3,886.06,1413.86,891.85z"/>
	</g>
	<path class="st10" d="M1514.15,1261.43c0,0-9.06-469.4-74.76-238.42"/>
	<path class="st10" d="M1303.9,1255.88c0,0-14.58-279.37,47.76-331.24"/>
</g>
<g id="Layer_5">
	<path class="st5" d="M524.04,1371.5c-3.5,0.17-5.95-0.13-7.33-0.9c-1-0.55-2.24-1.94-3.71-4.16c0.68-1.23,1.89-3.32,3.62-6.27
		c1.56-2.64,2.77-4.73,3.62-6.27c11.31-20.42,15.27-31.57,11.89-33.44c-2.53-1.4-6.29,0.58-11.27,5.95
		c-3.66,3.89-6.55,7.76-8.68,11.6l-5.87,10.59c-0.3,0.54-0.56,1.42-0.79,2.65c-0.23,1.23-0.49,2.11-0.79,2.65
		c-0.68,1.23-1.94,1.96-3.77,2.2c-1.84,0.24-3.37,0.01-4.6-0.67c-1.31-0.72-2.25-2.1-2.83-4.12c-0.58-2.03-0.53-3.66,0.15-4.88
		l11.86-21.42c4.8-8.67,6.24-13.54,4.33-14.61c-0.31-0.17-1.37,0.2-3.17,1.1c-9.53,4.35-16.64,10.75-21.31,19.19
		c-0.68,1.23-1.52,3.1-2.5,5.61c-0.99,2.51-1.8,4.34-2.44,5.49c-0.85,1.54-2.03,2.54-3.54,3c-1.51,0.46-3.04,0.28-4.57-0.57
		c-1.77-0.98-11.88-0.52-12.27-2.34c-0.09-0.75-3.14-2.51-1.98-5.88c1.11-3.09-0.96-10.23-0.36-11.3l18.68-48.18
		c1.02-1.84,9.1-9.15,11.72-11.71c3.19-3.05,21.96,2.08,23.27,2.8c1.53,0.85,4.25,10.56,4.82,12.43
		c0.57,1.87-13.32,19.96-14.32,21.41c4.27-2.45,21.69-20.93,25.22-18.98c4.38,2.42-7.19,25.55-7.66,32.91
		c3.37-2.65,5.99-4.3,7.87-4.97c3.15-1.16,20.2-21.18,23.04-19.61c2.84,1.57,2.14,16.86,3.4,21.47
		c2.22,7.95-11.42,26.17-18.31,38.61L524.04,1371.5z"/>
	<path class="st5" d="M1003.04,1467.53c-2.98,1.84-5.27,2.76-6.85,2.76c-1.14,0-2.9-0.62-5.27-1.84c0-1.4,0.04-3.82,0.13-7.24
		c0.09-3.07,0.13-5.48,0.13-7.24c0-23.34-1.93-35.01-5.79-35.01c-2.9,0-5.22,3.55-6.98,10.66c-1.32,5.18-1.97,9.96-1.97,14.35v12.11
		c0,0.61,0.2,1.51,0.59,2.7c0.4,1.18,0.59,2.08,0.59,2.7c0,1.41-0.75,2.66-2.24,3.75c-1.49,1.1-2.94,1.64-4.34,1.64
		c-1.49,0-2.98-0.74-4.48-2.24c-1.49-1.49-2.24-2.94-2.24-4.34v-24.48c0-9.92-1.1-14.87-3.29-14.87c-0.35,0-1.1,0.83-2.24,2.5
		c-6.23,8.42-9.35,17.46-9.35,27.12c0,1.41,0.17,3.45,0.53,6.12c0.35,2.68,0.53,4.67,0.53,5.99c0,1.76-0.55,3.2-1.65,4.34
		c-1.1,1.14-2.52,1.71-4.28,1.71c-2.02,0-10.64,5.3-11.87,3.89c-0.44-0.61-3.97-0.68-4.58-4.19c-0.53-3.25-5.79-8.48-5.79-9.71
		l-7-51.2c0-2.11,3.53-12.41,4.58-15.92c1.32-4.21,20.22-8.82,21.71-8.82c1.75,0,8.83,7.18,10.24,8.54
		c1.4,1.36-1.98,23.92-2.16,25.67c2.54-4.21,8.83-28.82,12.87-28.82c5,0,6.08,25.84,9.24,32.5c1.67-3.95,3.16-6.67,4.48-8.16
		c2.19-2.54,7.41-28.32,10.66-28.32c3.25,0,10.04,13.71,13.37,17.13c5.79,5.88,2.69,28.43,2.69,42.64V1467.53z"/>
	<path class="st5" d="M617.26,1357.45c-0.79,2.6-2.3,6.43-4.52,11.49c-2.22,5.06-3.74,8.93-4.56,11.61
		c-0.71,2.35-1.67,5.89-2.88,10.61c-1.21,4.72-2.15,8.22-2.84,10.49c-0.59,1.93-2.52,2.4-5.79,1.4c-3.36-1.02-5-3.31-4.93-6.86
		c-3.83,1.13-7.25,1.24-10.28,0.32c-2.44-0.74-10.19,2.78-12.9,0.54c-2.71-2.24-13.63-6.85-14.32-9.08
		c-1.37-4.27,3.59-18.06,5.96-25.87c0.82-2.69,6.38-13.81,8.59-20.48c2.06-5.89,8.96-21.4,9.89-24.78
		c3.08-1.08,13.04,1.21,14.72,1.72c4.03,1.22-1.63,23.67-2.83,27.62c-0.41,1.34-1.21,3.3-2.4,5.87c-1.19,2.57-2,4.53-2.4,5.87
		l-5.39,17.76c-0.61,2.02-0.7,4.28-0.28,6.79c0.58,2.93,1.79,4.67,3.64,5.23c3.61,1.1,7-0.4,10.17-4.48
		c2.14-2.83,3.91-6.52,5.28-11.05l1.97-18.52c0.59-1.93,7.03-19.79,6.89-22.95c2.68-1.29,9.32-2.12,11.25-1.54
		c2.02,0.61,3.1,12.22,4.35,13.98C624.88,1344.91,617.85,1355.52,617.26,1357.45z"/>
	<path class="st5" d="M670.27,1425.27c-0.2,1.57-1.01,2.81-2.41,3.74c-1.4,0.92-2.93,1.28-4.59,1.06
		c-5.48-0.71-14.53-10.7-12.67-25.06c0.85-6.53-0.64-13.97,1.19-27c1.83-13.04,2.33-24.12,3.17-30.65
		c0.14-1.04,1.67-9.96,1.66-11.99c0-2.03,0.74-16.55,0.87-17.51c3.12-1.54,13.14,8.87,14.8,9.09c1.91,0.25,4.78,11.85,6.36,13.34
		c1.58,1.49,2.24,3.19,1.99,5.1c-0.12,0.96-0.49,2.06-1.09,3.31c-0.88,2.01-1.38,3.1-1.49,3.26c-1.83,5.25-3.39,12.83-4.68,22.75
		c-2.05,15.75-3.1,23.84-3.16,24.28c-1.16,11-1.25,18.78-0.24,23.33C670.27,1423.59,670.37,1424.57,670.27,1425.27z"/>
	<path class="st5" d="M1521.3,1383.93c0.51,1.49,0.35,2.97-0.5,4.42c-0.85,1.45-2.06,2.45-3.64,2.99
		c-5.23,1.8-17.78-3.13-22.48-16.83c-2.14-6.22-6.78-12.23-10.93-24.72c-4.15-12.49-8.63-22.64-10.77-28.87
		c-0.34-1-2.93-9.66-3.83-11.48c-0.9-1.82-6.68-15.16-7-16.07c2.11-2.77,15.72,2.11,17.29,1.57c1.82-0.63,9.55,8.5,11.62,9.13
		c2.07,0.63,3.42,1.86,4.05,3.69c0.31,0.91,0.48,2.06,0.49,3.45c0.1,2.19,0.14,3.39,0.12,3.58c0.69,5.52,2.66,13,5.91,22.47
		c5.16,15.02,7.81,22.74,7.96,23.15c3.84,10.37,7.22,17.38,10.14,21.01C1520.55,1382.43,1521.07,1383.27,1521.3,1383.93z"/>
	<path class="st5" d="M739.9,1393.81c-0.28,2.35-4.1,3.57-11.45,3.65c-0.41,1.9,0.12,3.1-0.71,9.9l-2.18,11.76
		c-0.21,1.74-0.24,4.35-0.08,7.81c0.16,3.47,0.13,6.03-0.07,7.68c-0.17,1.39-1.02,2.55-2.54,3.47c-1.53,0.92-2.99,1.3-4.38,1.13
		c-2.18-0.26-9.65-3.82-10.68-7.75c-0.79-3.01,0.1-6.74,0.43-9.44l3.15-23.95c-3.93-1.09-13.47-1.98-14.06-2.23
		c-2.18-0.97-4.98-4-4.82-5.31c0.04-0.35,2.17-4.7,2.39-5.12c1.93-3.52,16.87-1.85,16.83-2.05c-1.07-6.11,0.72-2.08,1.15-6.36
		l2.11-9.16c-0.41-1.02,0.45-14.47,0.54-15.17c0.14-1.13,2.24-4.57,3.71-5.32c1.46-0.75,8.08,1.1,9.3,1.24
		c1.83,0.22,3.71-0.7,5.16,1.19c1.45,1.9,0.4,21.74,0.16,23.65c-0.25,2.09-0.83,4.12-1.73,6.09c-0.9,1.97-1.44,4.05-1.62,6.24
		l-0.06,0.52C737.18,1387.83,740.33,1390.33,739.9,1393.81z"/>
	<path class="st5" d="M1165.82,1531.86c0.54,2.31-2.63,4.76-9.51,7.34c0.26,1.92,1.17,2.88,2.72,9.55l1.97,11.8
		c0.4,1.71,1.26,4.17,2.59,7.37c1.33,3.2,2.18,5.62,2.56,7.24c0.32,1.37-0.08,2.75-1.2,4.13c-1.12,1.39-2.36,2.24-3.73,2.56
		c-2.14,0.5-10.37-0.3-12.68-3.64c-1.77-2.56-2.21-6.37-2.82-9.02l-5.22-23.59c-4.07,0.32-13.34,2.74-13.98,2.71
		c-2.38-0.17-6.04-2.06-6.34-3.34c-0.08-0.34,0.43-5.16,0.5-5.63c0.62-3.97,15.22-7.5,15.12-7.67c-3.09-5.38-0.03-2.2-1.09-6.37
		l-1.14-9.33c-0.73-0.82-4.52-13.76-4.68-14.44c-0.26-1.11,0.55-5.06,1.67-6.27c1.12-1.21,7.97-1.73,9.17-2.01
		c1.8-0.42,3.25-1.93,5.26-0.64c2.01,1.29,7.79,20.3,8.23,22.18c0.48,2.05,0.63,4.16,0.45,6.31c-0.17,2.16,0.03,4.3,0.61,6.41
		l0.12,0.51C1161.22,1527.16,1165.03,1528.44,1165.82,1531.86z"/>
	<path class="st5" d="M983.33,1547.3c0,2.37-3.64,4.04-10.93,5c-0.18,1.93,0.49,3.07,0.49,9.91l-0.75,11.94
		c0,1.76,0.28,4.34,0.86,7.77c0.57,3.42,0.86,5.97,0.86,7.63c0,1.4-0.7,2.66-2.11,3.75c-1.4,1.1-2.81,1.65-4.21,1.65
		c-2.19,0-10.04-2.64-11.53-6.41c-1.14-2.9-0.71-6.7-0.71-9.42l0.25-24.16c-4.04-0.61-13.61-0.35-14.23-0.52
		c-2.28-0.7-5.42-3.37-5.42-4.69c0-0.35,1.59-4.93,1.76-5.37c1.5-3.72,16.52-3.86,16.46-4.05c-1.8-5.94,0.47-2.15,0.38-6.45l1-9.35
		c-0.53-0.96-1.29-14.42-1.29-15.13c0-1.14,1.68-4.81,3.04-5.73c1.36-0.92,8.15,0.12,9.38,0.12c1.84,0,3.6-1.14,5.27,0.57
		c1.67,1.71,3,21.53,3,23.46c0,2.11-0.33,4.19-0.99,6.25c-0.66,2.06-0.94,4.19-0.86,6.38v0.53
		C979.91,1541.69,983.33,1543.79,983.33,1547.3z"/>
	<path class="st5" d="M789.08,1393.71c-0.17,1.57-0.76,3.76-1.78,6.56c-1.01,2.8-1.6,4.99-1.78,6.56l-2.94,26.96
		c-0.18,1.66,0.01,4.33,0.58,8.01c-1.53,1.86-3.08,2.71-4.65,2.54c-5.5-0.6-17.3-7.94-17.22-13.49c0.24-10.3,1.7-13.89,2.26-19.03
		c0.94-8.64,1.89-14.1,3.23-19.87c-0.04-0.45,3.13-6.83,3.18-7.26c0.17-1.57,0.77-9.59,3.22-9.33c2.18,0.24,6.36,0.63,8.44,1.74
		C784.31,1378.36,789.28,1391.88,789.08,1393.71z M790.13,1362.72c-0.21,1.92-1.04,3.42-2.48,4.5c-1.44,1.08-3.12,1.51-5.04,1.3
		c-2.27-0.25-4.3-1.26-6.09-3.05c-1.79-1.78-7.05-8.83-6.8-11.09c0.21-1.92,1.1-8.44,2.59-9.51c1.48-1.07,5.4-2.96,7.41-2.74
		c2.36,0.26,5.45,0.55,7.11,2.28C788.5,1346.12,790.39,1360.36,790.13,1362.72z"/>
	<path class="st5" d="M1031.82,1545.58c0.14,1.57,0,3.83-0.44,6.78c-0.44,2.95-0.58,5.21-0.44,6.78l2.47,27
		c0.15,1.66,0.87,4.24,2.16,7.73c-1.13,2.13-2.48,3.27-4.05,3.41c-5.51,0.5-18.53-4.34-19.56-9.8c-1.81-10.14-1.09-13.95-1.56-19.1
		c-0.79-8.65-0.95-14.19-0.78-20.11c-0.13-0.43,1.71-7.31,1.67-7.75c-0.14-1.57-1.15-9.56,1.3-9.78c2.18-0.2,6.36-0.64,8.62,0.03
		C1024.1,1531.48,1031.65,1543.75,1031.82,1545.58z M1026.7,1514.99c0.18,1.92-0.34,3.56-1.53,4.9c-1.2,1.35-2.76,2.1-4.68,2.28
		c-2.27,0.21-4.46-0.38-6.57-1.78c-2.11-1.39-8.66-7.25-8.87-9.52c-0.18-1.92-0.6-8.49,0.65-9.84c1.24-1.35,4.71-3.98,6.72-4.16
		c2.36-0.22,5.45-0.54,7.42,0.82C1021.8,1499.05,1026.48,1512.63,1026.7,1514.99z"/>
	<path class="st5" d="M1250.83,1395.89c0.29,1.55,0.36,3.82,0.2,6.79c-0.16,2.98-0.09,5.24,0.2,6.79l5.01,26.65
		c0.31,1.64,1.27,4.14,2.88,7.5c-0.92,2.23-2.16,3.49-3.71,3.78c-5.43,1.02-18.86-2.58-20.39-7.91c-2.76-9.93-2.4-13.78-3.36-18.87
		c-1.6-8.54-2.28-14.04-2.68-19.95c-0.17-0.41,1.01-7.44,0.93-7.87c-0.29-1.55-2.04-9.4,0.37-9.86c2.15-0.4,6.27-1.24,8.58-0.78
		C1241.81,1382.58,1250.49,1394.08,1250.83,1395.89z M1242.84,1365.92c0.36,1.9,0,3.57-1.07,5.02c-1.07,1.45-2.55,2.35-4.45,2.71
		c-2.24,0.42-4.48,0.04-6.71-1.15c-2.23-1.19-9.3-6.4-9.73-8.65c-0.36-1.9-1.4-8.4-0.28-9.86c1.11-1.46,4.31-4.4,6.29-4.78
		c2.33-0.44,5.37-1.05,7.47,0.12C1236.47,1350.51,1242.41,1363.59,1242.84,1365.92z"/>
	<path class="st5" d="M902.38,1411.58c-0.16,1.57-0.75,3.76-1.74,6.57c-1,2.81-1.58,5-1.74,6.57l-2.81,26.97
		c-0.17,1.66,0.03,4.33,0.62,8.01c-1.52,1.87-3.06,2.73-4.63,2.56c-5.5-0.57-17.34-7.85-17.29-13.4c0.19-10.3,1.63-13.89,2.17-19.05
		c0.9-8.64,1.82-14.11,3.13-19.88c-0.04-0.45,3.09-6.84,3.14-7.28c0.16-1.57,0.72-9.6,3.17-9.34c2.18,0.23,6.36,0.6,8.45,1.7
		C897.54,1396.25,902.57,1409.75,902.38,1411.58z M903.28,1380.58c-0.2,1.92-1.02,3.42-2.45,4.51c-1.44,1.09-3.12,1.53-5.03,1.33
		c-2.27-0.24-4.3-1.24-6.1-3.02c-1.8-1.78-7.09-8.79-6.85-11.06c0.2-1.92,1.06-8.44,2.54-9.53c1.48-1.08,5.39-2.99,7.4-2.78
		c2.36,0.25,5.45,0.52,7.12,2.24C901.57,1363.99,903.53,1378.22,903.28,1380.58z"/>
	<path class="st5" d="M863.41,1369.51c-0.12,1.93-0.54,4.41-1.25,7.44c-0.96,4.07-1.55,6.5-1.77,7.28
		c-0.43,2.7-1.34,10.69-2.74,23.96c-1.39,13.28-2.13,20.62-2.22,22.02c-0.52,8.41,0.01,14.77,1.59,19.09
		c-1.64,2.36-3.43,3.48-5.35,3.36c-2.02-0.12-3.76-1-5.24-2.63c-1.48-1.63-2.25-3.46-2.3-5.48c-4.35,3.51-8.67,5.13-12.96,4.87
		c-6.39-0.4-16.54-5.77-19.77-10.45c-2.99-4.23-1.42-15.49-1.01-22.06c0.48-7.71,0.57-16.04,4.22-23.82
		c4.65-9.82,8.88-17.27,15.37-16.87c3.85,0.24,9.58,3.96,13.4,7.62c0.69-4.09-1.96-14.3-0.92-31.21c0.1-1.58,5.06-14.08,7.43-13.94
		c2.8,0.17,11.28-0.21,13.25,1.32C865.11,1341.54,863.59,1366.7,863.41,1369.51z M845.42,1413.1c0.18-2.98-0.3-5.73-1.47-8.27
		c-1.48-3.08-3.58-4.71-6.29-4.87c-3.94-0.24-7.2,3.47-9.79,11.13c-1.92,5.51-3.05,10.98-3.39,16.41
		c-0.5,8.15,1.61,12.37,6.34,12.66c4.9,0.3,8.68-3.11,11.32-10.25C843.92,1425.1,845.02,1419.49,845.42,1413.1z"/>
	<path class="st5" d="M1069.77,1451.89c0,4.39-2.98,7.81-8.95,10.27c-4.65,1.93-19.02,3.42-24.11,3.42
		c-13.51,0-16.27-16.21-16.27-31.57c0-6.32,1.53-16.33,4.61-24.06c3.77-9.48,7.84-15.22,13.19-15.22c4.83,0,12.53-0.85,18.1,3.45
		c5.57,4.3,11.86,23.78,11.86,28.43c0,5.79-2.59,10.4-7.77,13.82c-4.56,3.07-10.5,0.61-16.82,0.61c-1.23,0-7.21-5.54-9.92-7.03
		c0.35,8.34,7.31,17.8,11.87,17.8c3.86,0,7.66,2.4,11.39,0.21c3.73-2.19,6.12-3.29,7.17-3.29
		C1067.88,1448.73,1069.77,1449.79,1069.77,1451.89z M1055.42,1427.01c0-2.19-0.64-4.28-1.91-6.25c-1.27-1.97-2.96-2.96-5.07-2.96
		c-2.9,0-5.13,1.27-6.71,3.82c-1.32,2.19-1.97,4.78-1.97,7.77c0,1.67,0.57,3.03,1.71,4.08c1.14,1.05,2.59,1.58,4.34,1.58
		C1052.21,1435.04,1055.42,1432.37,1055.42,1427.01z"/>
	<path class="st5" d="M1150.88,1455.66c-1.05,2.17-2.54,3.38-4.45,3.62c-1.48,0.19-4.03-0.37-7.64-1.68l-0.2-1.57
		c-0.24-1.91-0.54-4.75-0.88-8.51c-0.35-3.76-0.63-6.51-0.85-8.25c-2.37-18.63-6.41-32.12-11.98-31.41
		c-1.57,0.2-7.53-1.62-8.66,4.82c-1.69,9.64-3.33,21.72-1.99,32.26c0.19,1.48,0.75,3.64,1.69,6.49c0.94,2.85,1.5,5.01,1.69,6.49
		c0.16,1.22-0.28,2.29-1.32,3.22c-1.03,0.93-2.2,1.47-3.51,1.64c-5.22,0.66-21.71-1.1-22.55-7.72l-1.4-24.18
		c-0.09-0.7,1.89-4.36,1.89-5.73c0-1.37-0.1-2.9-0.19-3.6c-0.13-1.04-1.91-5.89-2.47-7.86c-0.56-1.96-0.36-11.03-0.48-11.99
		c-0.18-1.39,0.18-11.88,1.63-13.35c1.45-1.47,10.34-3.74,11.64-3.91c1.91-0.24,4.41,11.64,6.69,13.56l2.96,14.51
		c2.57-5.55-3.9-20.64,0.8-21.24c3.05-0.39,15.35-0.69,19.02,0.97c3.66,1.66,10.62,12.74,12.51,15.15
		c4.41,6.16,4.27,18.56,5.65,29.35L1150.88,1455.66z"/>
	<path class="st5" d="M1411.98,1405.98c-0.52,2.35-1.68,3.87-3.48,4.55c-1.4,0.53-4,0.57-7.83,0.14l-0.56-1.48
		c-0.68-1.8-1.63-4.5-2.84-8.07c-1.21-3.58-2.13-6.18-2.75-7.83c-6.64-17.57-13.71-29.74-18.96-27.76c-1.48,0.56-7.7,0.18-7.3,6.7
		c0.6,9.77,1.82,21.9,5.57,31.83c0.53,1.4,1.58,3.37,3.15,5.92c1.57,2.55,2.62,4.52,3.15,5.92c0.43,1.15,0.26,2.29-0.53,3.44
		c-0.79,1.14-1.8,1.95-3.03,2.41c-4.93,1.86-21.37,3.98-23.73-2.26l-6.98-23.19c-0.25-0.66,0.82-4.68,0.5-6.01
		c-0.32-1.33-0.78-2.8-1.02-3.45c-0.37-0.98-3.23-5.29-4.23-7.07c-1-1.78-2.91-10.64-3.25-11.55c-0.5-1.31-2.59-11.6-1.52-13.36
		c1.07-1.76,9.18-6.05,10.41-6.51c1.8-0.68,6.99,10.29,9.66,11.63l6.25,13.42c1.21-5.99-8.59-19.17-4.16-20.84
		c2.87-1.09,14.77-4.24,18.72-3.48c3.95,0.76,13.29,9.92,15.7,11.82c5.72,4.97,8.47,17.05,12.32,27.23L1411.98,1405.98z"/>
	<path class="st5" d="M1217.74,1435.9c0.57,4.09-0.67,7.89-3.72,11.42c-3.37,3.84-8.26,6.2-14.69,7.1
		c-2.77,0.47-5.85,0.33-9.23-0.44c-10.98-2.46-16.63-4.9-16.97-7.34c-0.53-3.82-4.24-10.56,1.24-11.32
		c0.78-0.11,4.76,0.65,5.64,0.61c0.62,2.57,6.03,7.98,10.16,9c3.58,0.92,10.78-0.27,13.87-0.96c3.93-0.89,0.64-7.55,0.59-7.86
		c-0.04-0.3-5.64-1.22-9.09-1.8c-3.89-0.61-7.41-1.54-7.87-1.65c-10.73-4.53-18.32-8.21-19.48-16.56
		c-0.7-5.04-7.26-22.75-4.99-27.41c2.56-5.14,9.35-9.24,14.13-9.9c3.56-0.5,11.03,3.41,15.98,5.56c4.95,2.15,13.1,11.13,14.59,14.2
		c1.01,2.16,1.51,5.01,1.71,6.49c0.22,1.56,0.18,2.9-0.11,4c-0.34,1.38-0.68,2.75-1.02,4.13c-1.49,1.36-1.55,2.2-3.2,2.43
		c-0.87,0.12-3.92-0.26-6.12-1.06c-2.19-0.8-3.34-1.59-3.45-2.38c-0.05-0.35,0.32-1.55,1.09-3.61c0.45-1.21,0.62-2.21,0.51-2.99
		c-0.73-5.22-5.53-8.47-9.62-7.9c-2.43,0.34-5.61,3.89-6.48,7.2c-0.62,2.57,4.45,9.82,4.84,12.6c0.48,3.48,0.93,3.07,6.28,5.16
		c4.8,1.37,9.09,0.61,13.99,2.05C1211.6,1426.23,1217.42,1433.55,1217.74,1435.9z"/>
	<path class="st5" d="M1110.81,1577.39c0.57,4.09-0.67,7.89-3.72,11.42c-3.37,3.84-8.26,6.2-14.69,7.1
		c-2.77,0.47-5.85,0.33-9.23-0.44c-10.98-2.46-16.63-4.9-16.97-7.34c-0.53-3.82-4.24-10.56,1.24-11.32
		c0.78-0.11,4.76,0.65,5.64,0.61c0.62,2.57,6.03,7.98,10.16,9c3.58,0.92,10.78-0.27,13.87-0.96c3.93-0.89,0.64-7.55,0.59-7.86
		c-0.04-0.3-5.64-1.22-9.09-1.8c-3.89-0.61-7.41-1.54-7.87-1.65c-10.73-4.53-18.32-8.21-19.48-16.56
		c-0.7-5.04-7.26-22.75-4.99-27.41c2.56-5.14,9.35-9.24,14.13-9.9c3.56-0.5,11.03,3.41,15.98,5.56c4.95,2.15,13.1,11.13,14.59,14.2
		c1.01,2.16,1.51,5.01,1.71,6.49c0.22,1.56,0.18,2.9-0.11,4c-0.34,1.38-0.68,2.75-1.02,4.13c-1.49,1.36-1.55,2.2-3.2,2.43
		c-0.87,0.12-3.92-0.26-6.12-1.06c-2.19-0.8-3.35-1.59-3.45-2.38c-0.05-0.35,0.32-1.55,1.09-3.61c0.45-1.21,0.62-2.21,0.51-3
		c-0.73-5.22-5.53-8.47-9.62-7.9c-2.43,0.34-5.61,3.89-6.48,7.2c-0.62,2.57,4.45,9.82,4.84,12.6c0.48,3.48,0.93,3.07,6.28,5.16
		c4.8,1.37,9.09,0.61,13.99,2.05C1104.67,1567.72,1110.49,1575.04,1110.81,1577.39z"/>
	<path class="st5" d="M1326,1405.82c1.74,7.7,1.3,14.73-1.31,21.08c-3.04,7.25-8.24,11.71-15.6,13.37
		c-7.53,1.7-21.72,1.69-26.73-2.58c-4.53-3.74-8.13-13.76-9.88-21.55c-1.74-7.7-6.28-22.96-3.97-30.68
		c2.61-9.14,4.63-15.96,11.73-17.56c2.23-0.5,15.67-3.83,19.46-2.62C1310.57,1368.86,1323.06,1392.81,1326,1405.82z
		 M1314.65,1408.11c-2.96-13.1-7.6-18.93-13.94-17.5c-4.54,1.02-7.33,4.58-8.39,10.66c-0.77,4.58-0.55,9.53,0.65,14.83
		c2.57,11.39,7.24,16.31,14,14.79c4.37-0.99,7.09-4.07,8.16-9.26C1315.95,1417.67,1315.79,1413.16,1314.65,1408.11z"/>
	<path class="st5" d="M1467.75,1365.74c3.31,10.83,7.9,30.48,8.59,35.13c0.37,2.73-0.99,4.57-4.09,5.52
		c-4.7,1.44-7.52-0.27-8.45-5.13c-3.58,3.3-7.64,5.64-12.17,7.02c-4.36,1.33-8.85,1.51-13.46,0.54c-5.5-1.16-8.86-3.76-10.09-7.79
		c-1.21-3.94-6.85-11.48-2.53-16.57c3.92-4.59,10.55-7.8,14.83-9.1l8-5.27l0.21-7.86c-2.61-8.84-2.56-7.92-7.85-6.3
		c-6.63,2.03-9.47,6.29-7.58,12.5c0.64,2.1-3.08,4.38-5.43,5.1c-1.43,0.44-7.52-0.5-9.47-1.33c-1.95-0.82-4.38-6.01-4.82-7.43
		c-1.44-4.7-1.62-7.57,0.81-11.62c2.43-4.05,9.62-8.94,14.32-10.38C1444.35,1337.95,1461.21,1344.34,1467.75,1365.74z
		 M1459.01,1386.07c-0.51-1.68-2.03-2.13-4.55-1.36c-10.49,3.21-14.98,7.29-13.46,12.24c0.82,2.69,3.54,3.32,8.16,1.91
		c2.85-0.87,5.29-2.49,7.32-4.85C1458.97,1391.31,1459.81,1388.67,1459.01,1386.07z"/>
	<path class="st5" d="M852.1,1537.61c-2.24,11.1-7.55,30.57-9.16,34.98c-0.97,2.58-3.05,3.55-6.23,2.91
		c-4.82-0.97-6.48-3.82-4.99-8.53c-4.72,1.19-9.4,1.32-14.04,0.39c-4.47-0.9-8.5-2.88-12.1-5.94c-4.28-3.64-6-7.52-5.17-11.65
		c0.82-4.04-0.56-13.36,5.66-15.78c5.63-2.17,12.99-1.83,17.38-0.95l9.54-0.83l3.93-6.82c1.91-9.01,1.52-8.18-3.9-9.28
		c-6.8-1.37-11.33,1.02-12.61,7.39c-0.43,2.15-4.8,2.39-7.2,1.9c-1.46-0.3-6.38-4.02-7.7-5.68c-1.32-1.65-1-7.37-0.7-8.83
		c0.97-4.82,2.17-7.43,6.24-9.83c4.06-2.4,12.72-3.29,17.54-2.31C844.75,1502.04,856.53,1515.68,852.1,1537.61z M834.74,1551.34
		c0.35-1.72-0.77-2.84-3.35-3.36c-10.75-2.17-16.64-0.72-17.67,4.36c-0.56,2.75,1.53,4.61,6.26,5.56c2.92,0.59,5.84,0.33,8.75-0.78
		C832.21,1555.93,834.21,1554.01,834.74,1551.34z"/>
	<path class="st5" d="M923.43,1542.67c-0.12,0.6-0.39,1.53-0.81,2.79c-2.31,2.23-4.46,3.16-6.44,2.78
		c-1.64-0.32-2.92-1.55-3.84-3.69c0.58-3.91-3.24-8.7-5.82-9.2c-1.55-0.3-6.72,5.75-10.55,13.5c-1.73,3.42-0.3,6.38-1.55,12.84
		c-1.18,6.12,0.77,12.12,1.12,13.53c0.37,1.77,0.5,2.96,0.38,3.56c-0.28,1.47-1.18,2.52-2.69,3.17c-1.51,0.65-3.09,0.81-4.72,0.49
		c-6.59-1.27-16.03-6.24-16.51-6.95c-3.55-5.25,3.3-17.77,4.54-26.51c1.24-8.74,4.27-26.85,5.1-31.16
		c0.75-3.88,8.64-7.16,13.29-6.26c2.76,0.53,8.03,17.68,8.74,19.52c2.93-2.2,4.62-10.9,7.64-10.32c2.07,0.4,7.03,1.18,8.71,2.66
		c1.16,0.94,2.01,7.23,3.3,9.85C924.61,1535.88,923.68,1541.38,923.43,1542.67z"/>
	<g>
		<g>
			<path class="st5" d="M1250.03,1572.76L1250.03,1572.76c-5.69-26.4,11.09-52.41,37.49-58.1h0l-0.07-0.32h0
				c-26.28,5.67-52.18-10.95-58.02-37.15l-0.15,0.03c5.46,26.23-11.22,52-37.42,57.73l0.07,0.33c26.35-5.61,52.29,11.16,57.97,37.51
				h0c0,0.01,0,0.01,0,0.02l0.13-0.03C1250.03,1572.77,1250.03,1572.77,1250.03,1572.76z"/>
		</g>
	</g>
	<g>
		<g>
			<path class="st5" d="M713.73,1555.08c0,0.01,0,0.01-0.01,0.02l0.13,0.04c0-0.01,0-0.01,0.01-0.02l0,0
				c8.16-25.74,35.65-39.99,61.39-31.83h0l0.1-0.31l0,0c-25.63-8.13-39.86-35.41-31.93-61.05l-0.15-0.05
				c-8.28,25.48-35.55,39.57-61.14,31.53l-0.1,0.32C707.68,1501.95,721.88,1529.38,713.73,1555.08L713.73,1555.08z"/>
		</g>
	</g>
</g>
<g id="Layer_3">
	<path class="st5" d="M1250.69,376.14c26.71,1.86,63.82,10.96,80.47,21.58c8.07,5.15,6.07,21.35-5.76,17.42
		c-12.22-4.06-25.5-0.6-28.22,12.5c-9.91,47.67-45.07,169.57-88,254.87c-5.3,10.53,9.38,11.71,14.53,13.1
		c25.9,6.97,19.5,22.92-1.69,18.8c-29.69-5.77-44.38-8.76-65.86-15.84c-22.29-7.35-12.3-28.58,3.65-22.72
		c2.38,0.87,11.34,5.37,15.63,1.09c31.1-31.1,98.4-232.24,88.02-265.37c-2.89-9.22-13.87-11.84-21.74-12.66
		C1210,395.59,1225.7,374.4,1250.69,376.14z"/>
	<path class="st11" d="M1362.03,417.24c14.52,7.06-13.74,25.32-7.06,34.2c10.79,14.35,20.91-7.43,23.79-15.92
		c1.72-5.05,9.59-27.25,0.82-32.72C1358.44,389.63,1351.38,412.07,1362.03,417.24z"/>
	<path class="st5" d="M1308.38,629.21c-10.17,25.07-39.53,87.13-20.77,105.88c19.99,19.99,24.85-40.68,38.42-56.2
		c13.57-15.52,24.41-18.8,21.51,2.74c-1.53,11.36-16.7,66.23-0.71,70.66c18.56,5.15,29.8-45.4,41.46-57.9
		c14.94-16.03,30.54-17.08,27.39,4.71c-1.12,7.75-30.38,61.43-7.08,67.12c14.88,3.64,34.78-58.27,36.9-78.55
		c3.79-36.27-47.8-40.29-67.27-23.62c0,0-14.52-47.53-48.68-23.47C1329.54,640.6,1328.55,579.49,1308.38,629.21z"/>
	<g>
		<path class="st5" d="M570.58,1091.8c9.22-22.36,19.42-44.31,30.25-65.97c10.95-21.59,22.5-42.93,35.97-63.23
			c6.77-10.12,13.93-20.06,22.59-28.98c4.38-4.4,9.07-8.68,15.04-11.74c2.99-1.47,6.43-2.65,10.25-2.53
			c1.89,0.06,3.83,0.5,5.59,1.28c1.76,0.78,3.33,1.88,4.65,3.12c2.65,2.49,4.46,5.42,5.89,8.36c1.41,2.96,2.48,5.98,3.36,9.01
			c0.44,1.52,0.83,3.04,1.18,4.56l1.02,4.41c0.69,2.92,1.41,5.83,2.16,8.73c3.01,11.6,6.5,23.08,10.52,34.36
			c3.97,11.3,8.44,22.42,13.59,33.18c5.16,10.74,10.99,21.19,18.02,30.61c3.52,4.69,7.38,9.11,11.73,12.77
			c4.33,3.62,9.29,6.5,14.42,7.03c1.27,0.14,2.55,0.14,3.81-0.04c1.26-0.15,2.5-0.47,3.71-0.94c2.47-0.93,4.82-2.36,6.89-4.09
			c4.18-3.48,7.28-8.36,9.65-13.63c2.39-5.29,4.1-10.98,5.77-16.77c0.84-2.9,1.66-5.82,2.63-8.77c0.98-2.94,2.05-5.92,3.85-8.81
			c0.91-1.43,2.06-2.88,3.71-3.98c1.63-1.11,3.81-1.64,5.7-1.42c1.91,0.18,3.57,0.81,5.07,1.55c1.5,0.75,2.85,1.64,4.14,2.57
			c1.26,0.95,2.5,1.93,3.64,2.98l1.73,1.55l1.66,1.62c1.13,1.06,2.14,2.24,3.21,3.36c1,1.19,2.03,2.34,2.95,3.58
			c3.83,4.87,6.88,10.25,9.69,15.62c2.81,5.37,5.37,10.82,8.97,15.5c1.8,2.33,3.89,4.42,6.3,6.11c2.4,1.7,5.1,2.98,7.92,3.94
			c2.82,0.96,5.75,1.65,8.74,2.05c2.98,0.46,5.99,0.63,9.01,0.76c-3.02,0.04-6.05,0.05-9.07-0.24c-3.03-0.22-6.04-0.75-8.99-1.56
			c-2.95-0.83-5.82-2.03-8.44-3.7c-2.63-1.66-4.96-3.78-6.97-6.14c-4.04-4.74-6.84-10.23-9.84-15.43
			c-2.99-5.21-6.15-10.27-9.99-14.77c-0.93-1.15-1.95-2.21-2.93-3.31c-1.05-1.03-2.04-2.13-3.15-3.1l-1.63-1.49l-1.69-1.42
			c-1.12-0.97-2.28-1.82-3.46-2.65c-2.33-1.58-4.92-2.99-7.18-3.11c-1.12-0.07-2.04,0.21-2.9,0.81c-0.86,0.6-1.64,1.57-2.3,2.71
			c-1.34,2.28-2.27,5.07-3.14,7.87c-0.86,2.82-1.6,5.73-2.38,8.65c-1.55,5.85-3.18,11.81-5.64,17.61
			c-2.45,5.76-5.79,11.49-10.83,15.9c-2.52,2.2-5.38,3.98-8.55,5.24c-1.6,0.65-3.3,1.11-5.04,1.35c-1.73,0.27-3.5,0.3-5.23,0.13
			c-3.48-0.3-6.76-1.42-9.73-2.87c-2.97-1.49-5.67-3.32-8.16-5.34c-4.96-4.06-9.15-8.77-12.95-13.68
			c-3.81-4.92-7.15-10.12-10.27-15.41c-3.11-5.3-5.97-10.73-8.64-16.24c-5.33-11.02-9.95-22.33-14.02-33.82
			c-4.03-11.51-7.53-23.19-10.54-34.99c-0.75-2.95-1.47-5.91-2.15-8.88l-1.01-4.43c-0.32-1.42-0.68-2.83-1.07-4.22
			c-0.79-2.77-1.74-5.47-2.92-7.97c-1.2-2.47-2.62-4.78-4.37-6.45c-1.75-1.69-3.74-2.63-5.99-2.73c-2.25-0.12-4.75,0.59-7.17,1.76
			c-4.87,2.39-9.36,6.25-13.51,10.34c-4.16,4.14-8.02,8.67-11.74,13.33c-3.72,4.66-7.27,9.49-10.7,14.4
			c-6.87,9.83-13.25,20.05-19.47,30.36c-6.22,10.32-12.16,20.81-17.96,31.39C592.22,1048.57,581.2,1070.08,570.58,1091.8z"/>
	</g>
	<g>
		<path class="st5" d="M1126.81,1026.56c8.89-11.68,17.72-23.38,26.33-35.23c4.32-5.91,8.61-11.84,12.79-17.84
			c4.18-6,8.38-11.98,12.4-18.07c7.98-12.2,15.89-24.5,22.26-37.41c3.13-6.48,6.04-12.95,7.49-19.75c1.7-7.43,4.25-14.56,7.33-21.43
			c3.14-6.84,6.85-13.41,11.14-19.63c2.15-3.11,4.46-6.12,6.97-8.99c2.53-2.86,5.23-5.63,8.34-8.05c3.12-2.39,6.59-4.63,10.95-5.67
			c1.09-0.25,2.24-0.39,3.42-0.4c1.19,0.01,2.4,0.16,3.59,0.49c2.38,0.68,4.48,2.11,5.99,3.79c1.55,1.67,2.64,3.54,3.5,5.4
			c0.42,0.94,0.79,1.88,1.12,2.82l0.87,2.7c1.09,3.6,2,7.22,2.82,10.85c3.25,14.5,4.98,29.06,7.76,43.38
			c1.35,7.16,3,14.26,5.48,21.06c1.26,3.39,2.77,6.69,4.79,9.68c1.99,3,4.55,5.69,7.79,7.45c-3.39-1.44-6.3-3.94-8.64-6.83
			c-2.34-2.91-4.17-6.2-5.73-9.56c-1.57-3.37-2.83-6.87-3.98-10.39c-1.15-3.52-2.14-7.09-3.06-10.66
			c-1.81-7.16-3.31-14.36-4.86-21.52c-1.54-7.16-3.01-14.31-4.86-21.31c-0.93-3.5-1.94-6.95-3.09-10.33l-0.89-2.51l-0.46-1.15
			l-0.5-1.11c-0.7-1.45-1.54-2.76-2.52-3.75c-1.95-2.03-4.26-2.6-7.08-1.88c-2.8,0.72-5.67,2.52-8.28,4.65
			c-5.25,4.34-9.8,9.88-13.8,15.73c-4,5.88-7.46,12.16-10.41,18.66c-2.97,6.48-5.42,13.21-7.04,20.07
			c-0.18,0.82-0.46,1.82-0.71,2.76c-0.27,0.94-0.48,1.91-0.81,2.81c-0.62,1.82-1.23,3.65-1.98,5.39c-0.36,0.88-0.7,1.77-1.08,2.63
			l-1.17,2.57c-0.75,1.73-1.65,3.37-2.49,5.04c-3.45,6.63-7.26,12.99-11.24,19.23c-3.96,6.24-8.15,12.32-12.45,18.3
			c-8.58,11.98-17.66,23.55-26.97,34.91C1146.46,1004.72,1136.88,1015.87,1126.81,1026.56z"/>
	</g>
	<g>
		<g>
			<g>
				<path class="st5" d="M981.24,1041.54c-3.45,0.3-6.93,0.09-9.68-1.34c-2.76-1.41-4.67-4.04-6.08-7.12
					c-1.42-3.08-2.4-6.53-3.38-10.01c-1.96-6.97-4.02-14.2-7.33-21.01c-3.33-6.78-7.92-13.06-13.59-18.12
					c-1.41-1.27-2.9-2.44-4.41-3.58l-4.48-3.17c-2.88-2.1-5.69-4.3-8.34-6.7c-2.69-2.35-5.16-4.94-7.53-7.61
					c-2.39-2.66-4.57-5.52-6.6-8.49c-4.13-5.9-7.43-12.39-10.43-19.06c1.96,7.04,4.7,13.92,8.36,20.35
					c3.66,6.43,8.22,12.41,13.53,17.63c1.29,1.34,2.7,2.57,4.07,3.84c0.7,0.62,1.43,1.19,2.14,1.79c0.72,0.6,1.43,1.19,2.18,1.74
					l4.34,3.29c1.37,1.1,2.71,2.23,3.97,3.44c5.11,4.78,9.27,10.49,12.29,16.83c1.55,3.15,2.87,6.44,4.03,9.82
					c1.17,3.38,2.16,6.84,3.25,10.35c1.12,3.5,2.23,7.07,3.97,10.57c0.88,1.74,1.93,3.47,3.3,5.02c1.39,1.54,3.13,2.85,5.05,3.71
					c1.92,0.88,3.97,1.27,5.95,1.4c1.99,0.12,3.93,0,5.81-0.32c3.77-0.61,7.34-1.72,10.81-2.99c6.91-2.64,13.44-5.98,19.76-9.65
					c-6.8,2.67-13.58,5.39-20.53,7.31C988.22,1040.44,984.71,1041.26,981.24,1041.54z"/>
				<path class="st5" d="M823.59,854.72c2.64-5.34,5.41-10.61,8.48-15.55c1.54-2.46,3.15-4.85,4.92-7c1.77-2.13,3.68-4.09,5.71-5.35
					c2.05-1.28,4.04-1.77,6.12-1.34c2.1,0.39,4.33,1.76,6.36,3.55c4.09,3.62,7.48,8.54,10.63,13.5c3.16,5.01,6,10.28,8.7,15.63
					c1.38,2.66,2.7,5.36,4.02,8.07c1.32,2.69,2.48,5.43,3.63,8.2c2.26,5.56,4.17,11.28,6.03,17.04c-0.99-5.97-2.26-11.91-3.93-17.77
					c-0.83-2.93-1.8-5.84-2.88-8.69c-1.07-2.84-2.15-5.68-3.3-8.5c-2.32-5.62-4.84-11.18-7.74-16.63c-1.44-2.73-3.03-5.39-4.81-7.99
					c-1.78-2.59-3.74-5.13-6.12-7.46c-2.38-2.29-5.27-4.51-9.08-5.5c-1.89-0.49-3.96-0.56-5.91-0.2c-1.95,0.35-3.75,1.1-5.32,2.01
					c-3.17,1.83-5.58,4.22-7.72,6.67c-2.14,2.46-3.97,5.04-5.7,7.65c-6.78,10.51-11.92,21.53-17.09,32.49l-7.54,16.48
					c-1.22,2.78-2.55,5.41-3.83,8.1c-1.31,2.67-2.57,5.38-3.89,8.04c-5.51,10.55-11.55,20.83-18.32,30.62
					c-3.46,4.84-6.99,9.64-10.81,14.21c-0.95,1.15-1.86,2.34-2.83,3.46l-2.98,3.33c-1,1.1-1.98,2.24-3,3.32l-3.14,3.19
					c-4.13,4.33-8.62,8.28-13.22,12.13l-3.53,2.8l-3.64,2.66c-2.47,1.72-4.96,3.41-7.63,4.85c5.67-2.16,10.99-5.2,16.09-8.52
					c5.07-3.37,9.97-7.05,14.58-11.05l3.46-3.02c1.13-1.03,2.2-2.12,3.31-3.17l3.3-3.19c1.08-1.08,2.1-2.22,3.15-3.33
					c2.09-2.24,4.21-4.45,6.11-6.85l2.92-3.54c0.96-1.19,1.99-2.33,2.87-3.58l5.48-7.38c0.95-1.21,1.73-2.52,2.58-3.8l2.5-3.85
					l2.5-3.85c0.82-1.29,1.55-2.64,2.33-3.96l4.6-7.95c1.46-2.69,2.79-5.45,4.17-8.17c1.36-2.73,2.79-5.47,4.04-8.2l7.63-16.41
					C818.37,865.49,820.92,860.05,823.59,854.72z"/>
				<path class="st5" d="M1030.67,923.24c-0.43-0.87-0.98-1.39-1.42-1.76c-0.46-0.37-0.87-0.61-1.26-0.83
					c-1.54-0.78-2.82-1.11-4.12-1.44c-2.56-0.6-5.02-0.93-7.47-1.2c-4.9-0.54-9.75-0.7-14.59-0.8c-4.84-0.09-9.67-0.05-14.5,0.09
					c-2.4,0.06-4.85,0.19-7.21,0.31c-2.28,0.12-4.56,0.08-6.71-0.28c-2.15-0.37-4.19-1.01-5.9-2.17c-1.74-1.13-3.15-2.78-4.45-4.67
					c-1.29-1.9-2.51-4-3.92-6.03c-1.41-2.04-3.03-4-4.92-5.67c-1.87-1.69-3.97-3.11-6.17-4.26c-2.27-1.17-4.66-1.88-7.04-2.46
					c-4.77-1.13-9.61-1.53-14.42-1.78c-4.82-0.23-9.62-0.16-14.42-0.04c-9.6,0.26-19.16,1.1-28.69,2.06
					c-9.54,0.95-19.05,2.16-28.53,3.55c9.49-1.3,19.01-2.42,28.55-3.29c9.54-0.84,19.12-1.32,28.68-1.35
					c4.78-0.02,9.56,0.16,14.31,0.57c4.73,0.44,9.48,1.03,13.99,2.31c2.25,0.63,4.45,1.42,6.39,2.55c1.99,1.16,3.83,2.55,5.44,4.15
					c1.62,1.59,2.99,3.42,4.21,5.38c1.23,1.96,2.31,4.07,3.61,6.2c1.3,2.11,2.93,4.29,5.15,5.9c2.19,1.66,4.79,2.6,7.33,3.16
					c2.55,0.55,5.1,0.71,7.6,0.7l7.16,0.03c9.49,0.14,19.06,0.59,28.32,1.8c2.3,0.32,4.59,0.7,6.68,1.25
					c0.17,0.05,0.34,0.1,0.5,0.14c-0.9,0.41-1.87,0.8-2.89,1.15c-2.19,0.73-4.38,1.48-6.64,2.13c-8.99,2.66-18.31,4.67-27.64,6.41
					c-9.33,1.8-18.72,3.33-28.13,4.46c-4.71,0.58-9.41,1.05-14.09,1.39c-2.32,0.09-4.67,0.26-6.94,0.2
					c-0.57-0.01-1.15,0.01-1.71-0.02l-1.62-0.13c-1.09-0.03-2.16-0.27-3.25-0.47c-4.36-0.91-8.83-2.47-13.28-4.09l-13.45-5.06
					c-4.52-1.68-9.13-3.23-13.85-4.51c-4.71-1.27-9.55-2.29-14.51-2.61l-3.74-0.08c-1.15,0.03-2.32,0.01-3.5-0.03
					c-2.36-0.08-4.73-0.23-7.1-0.43c-4.74-0.41-9.49-0.95-14.21-1.65c-4.72-0.7-9.42-1.54-14.08-2.56c-4.65-1.05-9.3-2.2-13.7-3.98
					c-2.17-0.91-4.38-1.92-6.03-3.51c-0.41-0.39-0.73-0.85-0.96-1.33c-0.2-0.49-0.25-1.02-0.13-1.53c0.29-1.03,1.17-1.87,2.09-2.57
					c1.91-1.36,4.12-2.32,6.35-3.16c2.24-0.84,4.53-1.52,6.84-2.14c9.27-2.4,18.74-3.97,28.21-5.39
					c-9.49,1.33-18.97,2.81-28.28,5.13c-2.32,0.61-4.63,1.26-6.91,2.02c-2.27,0.78-4.53,1.68-6.56,3.05
					c-0.98,0.71-1.99,1.56-2.41,2.86c-0.18,0.65-0.13,1.37,0.11,1.99c0.26,0.61,0.64,1.15,1.08,1.6c1.78,1.8,4.01,2.86,6.21,3.87
					c4.45,1.91,9.07,3.32,13.72,4.55c4.66,1.23,9.36,2.26,14.08,3.17c4.73,0.9,9.47,1.71,14.26,2.35c2.39,0.32,4.79,0.6,7.22,0.8
					c1.21,0.1,2.44,0.18,3.68,0.21l3.44,0.25c4.59,0.53,9.13,1.71,13.6,3.16c4.47,1.45,8.87,3.2,13.26,5.03l13.24,5.62
					c4.48,1.83,9,3.7,14.01,4.86c1.27,0.27,2.53,0.57,3.84,0.67l1.95,0.21c0.64,0.05,1.26,0.05,1.89,0.07
					c2.53,0.13,4.96,0.03,7.43-0.01c4.88-0.24,9.74-0.53,14.54-1.11c9.63-1.07,19.17-2.52,28.68-4.29
					c9.49-1.86,18.92-3.98,28.28-6.85c1.17-0.38,2.34-0.69,3.51-1.12l3.49-1.27c1.17-0.44,2.37-0.95,3.58-1.55
					c0.61-0.3,1.23-0.64,1.87-1.05c0.65-0.44,1.32-0.88,2.08-1.74c0.19-0.24,0.38-0.45,0.58-0.79c0.1-0.17,0.18-0.3,0.28-0.51
					c0.09-0.21,0.17-0.42,0.24-0.64C1031.22,925.45,1031.13,924.15,1030.67,923.24z M1025.19,926.32c0,0,0.02,0.01,0.02,0.01
					C1025.22,926.34,1025.21,926.34,1025.19,926.32z"/>
			</g>
		</g>
	</g>
	<g>
		<g>
			<path class="st5" d="M1101.03,536.39c0-10.13-11.68-18.44-25.82-16.98c-14.14,1.46-20.21,8.86-21.23,19.97s8.53,10.69,9.98,13.08
				c1.46,2.39-4.95,1.46-5.42,5.25c-0.55,4.43-2.25,10.19,2.41,9.91c5.18-0.31,0.57-8.86,3.27-8.33c2.47,0.49,0.01,8.15,4.7,8.02
				c4.87-0.13-0.4-7.5,4.07-7.83c5.32-0.38-3.49,8.25,4.97,7.64c4.75-0.34,0.21-7.24,4.1-7.08c3.47,0.15-2.01,7.46,3.31,7.46
				c6.73,0,1.1-7.56,3.48-7.7c3.13-0.18,0.05,7.69,3.87,7.72c2.35,0,1.99-3.09,1.99-10.94c0-3.58-6.73-0.1-4.91-4.7
				C1091.6,547.29,1101.03,546.52,1101.03,536.39z M1070.26,541.2c-3.81,0.29-6.13-0.82-6.56-3.83c-0.27-1.9,0.88-6.21,5.19-6.54
				C1072.56,530.56,1074.66,540.87,1070.26,541.2z M1084.1,541.94c-5.03-0.38-2.63-12.15,1.56-11.83c4.93,0.37,6.24,5.29,5.93,7.46
				C1091.1,540.99,1088.45,542.27,1084.1,541.94z"/>
		</g>
	</g>
	<g>
		<g>
			<path class="st5" d="M792.58,685.05c-27.54-51.12-43.89-94.44-52.88-130.66c9.11-0.99,16.38-1.51,20.57-1.72
				c21.84-1.13,17.96-20.66-6.38-18.52c-5.14,0.45-11.33,1.14-18.22,2.09c-9.22-47.5-5.19-81.2,1.45-103.04
				c6.58-21.64-25.15-34.57-35.91,6.1c-9.17,34.65-6.76,69.5,1.58,102.67c-10.61,2.24-21.61,4.99-32.31,8.28
				c-14.45-65.19-7.83-110.01,0.85-138.54c7.78-25.58-29.16-42.91-41.88,5.17c-11.32,42.77-2.84,95.24,12.22,144.19
				c-27.45,12.65-46.92,30.34-41.61,54.47c3.31,15.08,21.34,12.62,29.63,10.68c8.3-1.94,19.74-18.61,6.81-13.13
				s-25.63,5.6-20.12-7.86c4.75-11.61,16.13-20.72,30.58-27.85c25.61,75.1,63.72,137.96,63.72,137.96
				c12.58,26.45,36.16,19.17,21.42-8.18c-29.2-54.2-47.17-100.7-57.61-140.3c10.94-3.26,22.3-5.81,33.12-7.79
				c16.58,52.74,46.19,100.19,64.76,134.35C784.3,715.24,805.05,708.19,792.58,685.05z"/>
		</g>
	</g>
	<path class="st5" d="M849.28,679.32c-15.64-25.46-44.56-90.53-37.09-122.68c7.47-32.14,33.93-23.78,29.95,7.15
		c-2.28,17.72,8.7,75.71,24.05,110.01C878.62,701.58,863.09,701.8,849.28,679.32z"/>
	<path class="st5" d="M912.6,620.16c-27.71-86.97-24.72-169.4-16.28-220.69c10.87-66.03,45.44-36.08,38.07,8.71
		c-13.98,84.92-20.28,136.11-1.5,204.83C938.85,634.86,921.83,649.15,912.6,620.16z"/>
	<g>
		<g>
			<path class="st5" d="M856.78,496.52c-2.11-12.75-15.36-21.55-29.58-19.65c-14.22,1.89-24.04,13.76-21.93,26.51
				s15.36,21.55,29.58,19.65S858.89,509.27,856.78,496.52z M833.79,492.4c0.1-1.47,0.49-2.94,1.11-4.31
				c0.64-1.36,1.58-2.64,2.91-3.54c0.18,1.62,0.15,2.95,0.15,4.29c0,1.33-0.09,2.6-0.18,3.89c-0.1,1.29-0.27,2.59-0.51,3.92
				c-0.25,1.34-0.56,2.7-1.15,4.2c-1.05-1.23-1.62-2.64-1.99-4.07C833.78,495.35,833.67,493.87,833.79,492.4z M820.32,492.22
				c0.1-1.47,0.49-2.94,1.11-4.31c0.64-1.36,1.58-2.64,2.91-3.54c0.18,1.62,0.15,2.95,0.15,4.29c0,1.33-0.09,2.6-0.18,3.89
				c-0.1,1.29-0.27,2.59-0.51,3.92c-0.25,1.34-0.56,2.7-1.15,4.2c-1.05-1.23-1.62-2.64-1.99-4.07
				C820.32,495.17,820.21,493.69,820.32,492.22z M848.34,509.01c-1.18,2.19-2.88,4.16-4.95,5.71c-4.15,3.13-9.57,4.33-14.63,3.85
				c-5.08-0.47-10-2.47-13.82-5.85c-1.89-1.69-3.49-3.74-4.51-6.05c-1-2.31-1.46-4.84-1.04-7.2c1.34,4.6,4.37,7.87,7.94,10.14
				c3.58,2.27,7.72,3.6,11.88,3.98c4.16,0.37,8.37-0.25,12.06-2.18c3.73-1.9,6.74-5.24,9.2-9.32
				C850.25,504.47,849.5,506.81,848.34,509.01z"/>
		</g>
	</g>
	<g>
		<g>
			<path class="st5" d="M956.11,672.05c-2.11-12.75-15.36-21.55-29.58-19.65s-24.04,13.76-21.93,26.51
				c2.11,12.75,15.36,21.55,29.58,19.65C948.4,696.67,958.22,684.8,956.11,672.05z M926.35,683.19c-0.1,1.47-0.49,2.94-1.11,4.31
				c-0.64,1.36-1.58,2.64-2.91,3.54c-0.18-1.62-0.15-2.95-0.15-4.29c0-1.33,0.09-2.6,0.18-3.89c0.1-1.29,0.27-2.59,0.51-3.92
				c0.25-1.34,0.56-2.7,1.15-4.2c1.05,1.23,1.62,2.64,1.99,4.07C926.35,680.24,926.46,681.72,926.35,683.19z M939.81,683.37
				c-0.1,1.47-0.49,2.94-1.11,4.31c-0.64,1.36-1.58,2.64-2.91,3.54c-0.18-1.62-0.15-2.95-0.15-4.29c0-1.33,0.09-2.6,0.18-3.89
				c0.1-1.29,0.27-2.59,0.51-3.92c0.25-1.34,0.56-2.7,1.15-4.2c1.05,1.23,1.62,2.64,1.99,4.07
				C939.82,680.42,939.93,681.9,939.81,683.37z M950.74,676.12c-1.34-4.6-4.37-7.87-7.94-10.14c-3.58-2.27-7.72-3.6-11.88-3.98
				c-4.16-0.37-8.37,0.25-12.06,2.18c-3.73,1.9-6.74,5.24-9.2,9.32c0.22-2.37,0.97-4.72,2.13-6.92c1.18-2.19,2.88-4.16,4.95-5.71
				c4.15-3.13,9.57-4.33,14.63-3.85c5.08,0.47,10,2.47,13.82,5.85c1.89,1.69,3.49,3.74,4.51,6.05
				C950.7,671.22,951.16,673.76,950.74,676.12z"/>
		</g>
	</g>
	<path class="st5" d="M1102.83,551.84c0,0,33.01-12.48,35.45-23.32c3.33-14.82-7.58-25.42-13.09-9.6
		c2.79-9.05-9.92-24.49-16.24-3.96C1105.48,526.28,1116.18,534.96,1102.83,551.84z"/>
	<path class="st5" d="M1049.07,551.69c0,0-32.9-12.44-35.33-23.24c-3.32-14.78,7.55-25.34,13.04-9.57
		c-2.78-9.02,9.89-24.41,16.19-3.95C1046.43,526.21,1035.77,534.87,1049.07,551.69z"/>
</g>
</svg>
