<?xml version="1.0" encoding="utf-8"?>
<!-- Generator: Adobe Adobe Illustrator 24.2.0, SVG Export Plug-In . SVG Version: 6.00 Build 0)  -->
<svg version="1.1" xmlns="http://www.w3.org/2000/svg" xmlns:xlink="http://www.w3.org/1999/xlink" x="0px" y="0px" width="1960px"
	 height="1760px" viewBox="0 0 1960 1760" style="enable-background:new 0 0 1960 1760;" xml:space="preserve">
<style type="text/css">
	.st0{display:none;}
	.st1{fill:#05CFD0;}
	.st2{fill:url(#SVGID_1_);}
	.st3{fill:url(#SVGID_2_);}
	.st4{fill:url(#SVGID_3_);}
	.st5{fill:url(#SVGID_4_);}
	.st6{fill:url(#SVGID_5_);}
	.st7{fill:url(#SVGID_6_);}
	.st8{fill:url(#SVGID_7_);}
	.st9{fill:url(#SVGID_8_);}
	.st10{fill:url(#SVGID_9_);}
	.st11{fill:url(#SVGID_10_);}
	.st12{fill:none;stroke:#EBBDFE;stroke-width:7;stroke-miterlimit:10;}
	.st13{display:inline;fill:#EBBDFE;}
	.st14{fill:#EBBDFE;}
	.st15{fill:url(#SVGID_11_);}
	.st16{fill:url(#SVGID_12_);}
	.st17{display:none;fill:none;stroke:#000000;stroke-width:3;stroke-miterlimit:10;}
	.st18{fill:#EBBDFE;stroke:#FFFFFF;stroke-miterlimit:10;}
</style>
<g id="Layer_2" class="st0">
</g>
<g id="Layer_6">
</g>
<g id="Layer_1">
	<g>
		<path class="st1" d="M980,1090.09c-57.86,0-104.76,46.9-104.76,104.76c0,50.11,35.18,91.99,82.19,102.32
			c0.65-20.25-0.2-40.15-4.77-50.97c-3.93-9.32-20.97-1.93-28.32-34.44c-7.22-31.94,0.91-49.8,14.88-53.31
			c45.73-11.48,71.22,19.63,32.53,19.63c-31.44,0-35.13,6.56-21.27,14.8c9.67,5.75,66.17,4.01,75.91,22.9
			c6.94,13.46,5.42,20.39-12.72,32.01c-18.14,11.62-24.33,3.61-23.05,26.07c0.36,6.29,0.62,15.2,0.89,25.14
			c52.44-5.73,93.25-50.16,93.25-104.13C1084.76,1137,1037.86,1090.09,980,1090.09z M959.13,1188.97c-4.47,0.18-7.56-1.29-9.72-4.01
			c4.19-1.7,11.73-1.75,19.51-2.07C967.02,1186.56,963.97,1188.77,959.13,1188.97z M943.81,1152.86c-0.8-20.06,4.41-32.02,12-32.33
			c7.62-0.31,14.74,11.2,15.58,31.36c0.01,0.14,0.01,0.27,0.02,0.41C963.27,1150.85,953.7,1150.88,943.81,1152.86z M998.1,1162.42
			c-1.25,17.51-2.42,31.69-13.59,30.91c-6.13-0.43-8.66-4.5-9.51-10.76c9.96-0.76,18.91-2.79,20-10.28
			c1.25-8.61-6.55-15.55-18.68-18.87c2.07-12.84,6.77-19.93,12.07-19.55C994.64,1134.29,999.36,1144.91,998.1,1162.42z
			 M1006.97,1197.85c-10.97-1.91-8.33-14.59-5.56-30.32s8.77-24.16,14.6-23.15s9.3,11.09,6.54,26.82
			C1019.79,1186.94,1017.4,1199.67,1006.97,1197.85z M1044.12,1183.32c-3.51,12.65-6.47,22.88-15.33,20.45
			c-9.32-2.55-6.14-12.72-2.63-25.37s9.28-19.03,14.24-17.67S1047.62,1170.67,1044.12,1183.32z"/>
	</g>
	<g>
		
			<linearGradient id="SVGID_1_" gradientUnits="userSpaceOnUse" x1="973.3368" y1="1089.5028" x2="973.3368" y2="326.8028" gradientTransform="matrix(-0.342 -0.9397 0.9397 -0.342 193.245 2523.188)">
			<stop  offset="0" style="stop-color:#05CFD0"/>
			<stop  offset="1" style="stop-color:#04D1D1;stop-opacity:0"/>
		</linearGradient>
		<polygon class="st2" points="891.09,1244.54 181.23,1538.21 151.37,1456.17 883.86,1224.67 		"/>
		
			<linearGradient id="SVGID_2_" gradientUnits="userSpaceOnUse" x1="973.3368" y1="1089.5028" x2="973.3368" y2="326.8028" gradientTransform="matrix(0.0775 -0.997 0.997 0.0775 -286.2902 2078.469)">
			<stop  offset="0" style="stop-color:#05CFD0"/>
			<stop  offset="1" style="stop-color:#04D1D1;stop-opacity:0"/>
		</linearGradient>
		<polygon class="st3" points="878.12,1203.21 110.37,1176.81 117.14,1089.77 879.76,1182.13 		"/>
		
			<linearGradient id="SVGID_3_" gradientUnits="userSpaceOnUse" x1="973.3368" y1="1089.5028" x2="973.3368" y2="326.8028" gradientTransform="matrix(0.4831 -0.8756 0.8756 0.4831 -538.8126 1475.1791)">
			<stop  offset="0" style="stop-color:#05CFD0"/>
			<stop  offset="1" style="stop-color:#04D1D1;stop-opacity:0"/>
		</linearGradient>
		<polygon class="st4" points="883.42,1160.22 195.41,818.49 237.59,742.05 893.63,1141.71 		"/>
		
			<linearGradient id="SVGID_4_" gradientUnits="userSpaceOnUse" x1="973.3368" y1="1089.5028" x2="973.3368" y2="326.8028" gradientTransform="matrix(0.8021 -0.5972 0.5972 0.8021 -519.0512 821.468)">
			<stop  offset="0" style="stop-color:#05CFD0"/>
			<stop  offset="1" style="stop-color:#04D1D1;stop-opacity:0"/>
		</linearGradient>
		<polygon class="st5" points="906.03,1123.27 421.1,527.47 491.13,475.33 922.99,1110.65 		"/>
		
			<linearGradient id="SVGID_5_" gradientUnits="userSpaceOnUse" x1="973.3368" y1="1089.5028" x2="973.3368" y2="326.8028" gradientTransform="matrix(0.9773 -0.2117 0.2117 0.9773 -230.5484 234.5316)">
			<stop  offset="0" style="stop-color:#05CFD0"/>
			<stop  offset="1" style="stop-color:#04D1D1;stop-opacity:0"/>
		</linearGradient>
		<polygon class="st6" points="941.9,1099 746.99,355.93 832.32,337.45 962.56,1094.52 		"/>
		
			<linearGradient id="SVGID_6_" gradientUnits="userSpaceOnUse" x1="973.3367" y1="1089.5028" x2="973.3367" y2="326.8028" gradientTransform="matrix(0.9773 0.2117 -0.2117 0.9773 274.9741 -180.4079)">
			<stop  offset="0" style="stop-color:#05CFD0"/>
			<stop  offset="1" style="stop-color:#04D1D1;stop-opacity:0"/>
		</linearGradient>
		<polygon class="st7" points="984.6,1091.74 1114.66,334.63 1199.98,353.11 1005.27,1096.22 		"/>
		
			<linearGradient id="SVGID_7_" gradientUnits="userSpaceOnUse" x1="973.3368" y1="1089.5028" x2="973.3368" y2="326.8028" gradientTransform="matrix(0.8021 0.5972 -0.5972 0.8021 906.8894 -348.9628)">
			<stop  offset="0" style="stop-color:#05CFD0"/>
			<stop  offset="1" style="stop-color:#04D1D1;stop-opacity:0"/>
		</linearGradient>
		<polygon class="st8" points="1026.48,1102.81 1458.18,467.37 1528.21,519.51 1043.44,1115.43 		"/>
		
			<linearGradient id="SVGID_8_" gradientUnits="userSpaceOnUse" x1="973.3368" y1="1089.5028" x2="973.3368" y2="326.8028" gradientTransform="matrix(0.4831 0.8756 -0.8756 0.4831 1551.9116 -240.9156)">
			<stop  offset="0" style="stop-color:#05CFD0"/>
			<stop  offset="1" style="stop-color:#04D1D1;stop-opacity:0"/>
		</linearGradient>
		<polygon class="st9" points="1060.03,1130.21 1715.98,730.38 1758.15,806.82 1070.24,1148.72 		"/>
		
			<linearGradient id="SVGID_9_" gradientUnits="userSpaceOnUse" x1="973.3368" y1="1089.5028" x2="973.3368" y2="326.8028" gradientTransform="matrix(0.0775 0.997 -0.997 0.0775 2094.4055 124.3637)">
			<stop  offset="0" style="stop-color:#05CFD0"/>
			<stop  offset="1" style="stop-color:#04D1D1;stop-opacity:0"/>
		</linearGradient>
		<polygon class="st10" points="1079.22,1169.04 1841.83,1076.48 1848.6,1163.53 1080.86,1190.12 		"/>
		
			<linearGradient id="SVGID_10_" gradientUnits="userSpaceOnUse" x1="973.3368" y1="1089.5028" x2="973.3368" y2="326.8028" gradientTransform="matrix(-0.342 0.9397 -0.9397 -0.342 2437.1143 681.3902)">
			<stop  offset="0" style="stop-color:#05CFD0"/>
			<stop  offset="1" style="stop-color:#04D1D1;stop-opacity:0"/>
		</linearGradient>
		<polygon class="st11" points="1080.63,1212.33 1813.18,1443.65 1783.32,1525.69 1073.4,1232.2 		"/>
	</g>
	<path class="st12" d="M579.31,822.04c358.14-373.43,994.87-68.14,917.84,450.72"/>
	<g class="st0">
		<path class="st13" d="M1319.43,980.27c6.27-10.81-48.4-10.46-16.68-36.17c31.55-25.58,26,24.21,32.85,20.98
			c11.28-5.31-14.75-49.63,23.53-37.45c37.06,11.79-6.6,35.12-1.78,39.78c7.2,6.95,27.34-36.94,38.09,0.43
			c7.55,26.25-30.13,11.89-33.03,19.96c-2.4,6.68,52.51-0.86,23.18,31.7c-29.43,32.67-25.5-19.87-36.19-14.84
			c-10.31,4.85,17.69,48.86-25.05,33.64c-44.91-16,11.05-35.09,2.55-42.97c-10.77-9.99-27.78,42.17-41.44,1.41
			C1270.26,951.35,1315.93,986.31,1319.43,980.27z"/>
	</g>
	<g>
		<g>
			<g>
				<ellipse class="st14" cx="504.42" cy="905.32" rx="16.29" ry="24.44"/>
				<path class="st14" d="M494.46,869.14c0.25,0.53,0.41,0.82,0.41,0.82C494.73,869.7,494.6,869.42,494.46,869.14z"/>
				<path class="st14" d="M479.76,896.44c-1.48-0.28-2.9-0.48-4.28-0.61C478,896.57,479.76,896.44,479.76,896.44z"/>
				<path class="st14" d="M529.1,912.42c-3.65-1.66-6.31-2.18-6.31-2.18C525.02,911.07,527.12,911.8,529.1,912.42z"/>
				<path class="st14" d="M485.64,922.97c0.39-1.01,0.58-1.63,0.58-1.63C486.02,921.88,485.83,922.42,485.64,922.97z"/>
				<path class="st14" d="M510.82,939.82c-0.41-4.95-1.23-8.26-1.23-8.26C510.03,934.32,510.41,937.09,510.82,939.82z"/>
				<path class="st14" d="M521.22,871.69c-0.33,0.54-0.51,0.86-0.51,0.86S520.92,872.25,521.22,871.69z"/>
				<path class="st14" d="M351.5,1250.46c-3.53-1.64-6.09-2.15-6.09-2.15C347.56,1249.12,349.58,1249.84,351.5,1250.46z"/>
				<path class="st14" d="M343.9,1210.24c-0.32,0.53-0.49,0.85-0.49,0.85S343.6,1210.79,343.9,1210.24z"/>
				<path class="st14" d="M333.84,1277.51c-0.4-4.89-1.19-8.16-1.19-8.16C333.08,1272.08,333.45,1274.82,333.84,1277.51z"/>
				<path class="st14" d="M561.23,1158.27c-19.46-33.71-63.48-34.21-84.02,8.58c-20.03,41.73,58.46-10.11,62.96,62.55
					c5.25,84.85-125.08-21.84-125.08-21.84c66.86-110.31,41.39-210.52,41.39-210.52c27.56,26.86,98.42,11.86,120.17-25.92
					c34.93-60.7,15.84-145.54-44.15-168.44c-89.35-34.11-125.61,51.24-117.5,133.92c-48.16-30.36-64.83-78.61-58.93-102.77
					c32.8-134.15-93.7-83.39-48.85,42.14c12.27,34.34,44.11,59.66,111.04,100.5c36.26,154.59-34.58,200.33-34.58,200.33
					c-22.95-29.23-71.22-71.44-114.4-1.75c-29.86,48.2-24.21,130.25,24.2,165.63c72.65,53.1,86.47-41.62,105.1-79.13
					c164.75,107.24,202.92-20.85,203.69-22.82C571.54,1218.73,540.36,1165.08,561.23,1158.27z M475.48,895.83
					c-7.12-2.09-20.35-11.12-17.69-49.64c30.11-11.09,30.82,11,36.68,22.95c-2.29-4.84-12.3-30.09,18.24-49.24
					c19.33,28.36,10.81,47.61,8.52,51.78c2.87-4.59,17.74-24.97,38.91,6.09c-4.24,36.19-12.48,40.45-31.04,34.64
					c9.84,4.47,26.92,17.24,19.01,50.63c-30.73,12.67-34.43-3.82-37.3-23.24c1.03,12.45-0.55,35.3-24.38,42.08
					c-18.85-15.67-8.07-38.59-0.8-58.93c-2.6,6.8-14.13,31.58-37.42,8.83C448.22,905.07,457.54,894.12,475.48,895.83z
					 M369.87,1300.46c-29.68,12.51-33.25-3.77-36.02-22.95c0.99,12.3-0.54,34.85-23.55,41.55c-18.21-15.48-7.79-38.11-0.77-58.19
					c-2.51,6.71-13.65,31.18-36.14,8.72c0-26.39,9.01-37.2,26.33-35.51c-6.87-2.06-19.66-10.98-17.09-49.01
					c29.08-10.95,29.77,10.86,35.42,22.66c-2.21-4.77-11.88-29.72,17.62-48.62c18.67,28,10.44,47.01,8.23,51.13
					c2.78-4.54,17.13-24.66,37.58,6.01c-4.09,35.74-12.06,39.94-29.98,34.21C361,1254.87,377.5,1267.48,369.87,1300.46z"/>
				<ellipse class="st14" cx="327.52" cy="1240.42" rx="16.5" ry="24.74"/>
				<path class="st14" d="M318.05,1207.72c0.24,0.53,0.4,0.81,0.4,0.81C318.31,1208.27,318.18,1208,318.05,1207.72z"/>
				<path class="st14" d="M303.85,1234.68c-1.43-0.28-2.8-0.47-4.14-0.6C302.15,1234.81,303.85,1234.68,303.85,1234.68z"/>
				<path class="st14" d="M309.52,1260.87c0.37-1,0.56-1.61,0.56-1.61C309.9,1259.8,309.71,1260.33,309.52,1260.87z"/>
			</g>
		</g>
	</g>
	<path class="st14" d="M1362.24,1021.21c16.22,7.69,24.44,6.01,33.66-20.17c-14.93-26.98-31.6-14.5-34.92-11.6
		c2.73-2.69,13.39-15.48-0.23-40.11c-30.36,8.55-25.62,28.59-24.11,33.12c-3.51-9.99-1.19-26.28-30.31-23.51
		c-8.11,28.21,2.75,37.34,8.99,40.18c-16.26-4.53-26.45,1.93-30.38,21.83c18.09,21.17,32.35,4.81,35.74,0.22
		c-9.67,13.83-22.97,28.94-7.92,44.04c22.93-0.73,27.74-17.45,28.62-26.92c-0.21,14.99,0.77,27.94,30.92,24.08
		C1384.48,1038.94,1370.63,1026.33,1362.24,1021.21z M1336.97,1029.64c-8.28-1.63-13.39-11.11-11.41-21.16
		c1.98-10.05,10.3-16.88,18.59-15.24c8.28,1.63,13.39,11.11,11.41,21.16C1353.58,1024.45,1345.26,1031.28,1336.97,1029.64z"/>
	<path class="st14" d="M1111.91,1128.19c12.9,20.07,43.34,114.89,72.97,146.85c0,0,22.47-101.1,60.06-101.1
		c35.15,0,9.01-52.53-21.07-45.74c-30.08,6.79-42.8,106.73-42.8,106.73s-31.86-101.28-56.88-132.47
		c-12.2-15.2-73.73-33.54-73.73-33.54S1083.56,1084.08,1111.91,1128.19z"/>
	<path class="st14" d="M1406.98,1101.62c13.79,57.8,75.48,208.06,95.63,224.66c0,0,43.31-228.25,84.75-226.14
		c27.46,1.4,63.21,67.19,63.21,67.19s-18.97-136.06-78.52-138.32c-55.3-2.1-76.25,216.06-76.25,216.06s-34.82-138.64-58.87-187.89
		C1408.96,999.91,1393.85,1046.6,1406.98,1101.62z"/>
	<path class="st14" d="M1321.07,1271.73c-8.17-40.21-19.88-144.39-9.77-173.23c18.55-52.89,53.47-36.81,51.45,27.13
		c-0.64,20.34-17.76,141.29-21.26,160.11C1338,1304.56,1325.62,1294.13,1321.07,1271.73z"/>
	<g>
		<path class="st14" d="M866.36,1163.27c0,0-3.74-39.03-1.78-76.84c3.24-62.25,19.2-35.15,20.34-5.42
			c0.72,18.7-4.81,142.07-6.13,169.83c-0.75,15.88-13.98,2.86-11.27-32.41c0,0-15.73,36.94-51.81,40.76
			c-16.6,1.76-28.8-0.82-41.6-6.45c1.78-14.57-2.14-19.08-21.84-34.02c-1.47-5.9-5.28-14.12-5.28-20.92
			c0-50.31,29.87-67.82,55.75-69.72C829.98,1126.06,857.32,1142.63,866.36,1163.27z"/>
		<g>
			<path class="st14" d="M891.91,1004.92c1.48-8.09,4.67-12.42,7.78-11.9c3.11,0.52,4.96,5.7,3.48,13.79s-2.75,14.63-8.31,13.7
				C889.02,1019.53,890.43,1013.01,891.91,1004.92z"/>
			<path class="st14" d="M905.1,1010.51c1.87-6.5,4.95-9.78,7.59-9.08c2.64,0.7,3.85,5.11,1.98,11.61
				c-1.87,6.5-3.45,11.76-8.17,10.51C901.53,1022.24,903.23,1017.02,905.1,1010.51z"/>
			<path class="st14" d="M885.93,995.79c2.67-6.88,7.52-27.65,7.93-34.43c1.63-26.73-7.96-21.21-11.68,0.62
				c-1.73,10.14-2.25,27.77-9.69,27.77c-5.27,0-7.72-23.12-9.03-30.15c-3.61-19.42-14.47-16.72-11.16-2.28
				c3.32,14.44,5.96,32.6,7.27,36.22c1.31,3.62,7.64,0.46,12.76,0.68S884.47,999.56,885.93,995.79z"/>
			<g>
				<path class="st14" d="M867.23,1104.21c0,0,3.04-45.27-3.2-59.56c-2.09-4.79-11.18-0.99-15.09-17.71
					c-3.85-16.42,0.48-25.6,7.93-27.4c24.37-5.9,37.96,10.09,17.34,10.09c-16.76,0-18.73,3.37-11.34,7.61
					c5.15,2.95,35.27,2.06,40.46,11.77c3.7,6.92,2.89,10.48-6.78,16.45c-9.67,5.97-12.97,1.86-12.29,13.4
					c0.68,11.55-0.42,52.88-1.12,63.14C882.51,1131.14,867.23,1104.21,867.23,1104.21z"/>
			</g>
		</g>
	</g>
	<path class="st1" d="M793.48,1134.61c-2.81,0.6-5.53,1.38-8.16,2.34c25.29,0.39,47.87,18.14,53.33,43.93
		c6.35,29.96-12.78,59.39-42.74,65.74c-5.31,1.13-10.6,1.44-15.76,1.04c11.5,5.47,24.83,7.35,38.25,4.51
		c32.46-6.89,53.2-38.78,46.32-71.25C857.84,1148.46,825.95,1127.72,793.48,1134.61z"/>
	<g>
		<g>
			<g>
				<g>
					<linearGradient id="SVGID_11_" gradientUnits="userSpaceOnUse" x1="656.2012" y1="1172.4268" x2="711.5805" y2="1241.0997">
						<stop  offset="0" style="stop-color:#EBBDFE"/>
						<stop  offset="0.1006" style="stop-color:#E5BDFD"/>
						<stop  offset="0.2336" style="stop-color:#D4BFF9"/>
						<stop  offset="0.3847" style="stop-color:#B9C1F4"/>
						<stop  offset="0.5493" style="stop-color:#93C4EC"/>
						<stop  offset="0.7248" style="stop-color:#61C8E2"/>
						<stop  offset="0.9066" style="stop-color:#26CCD7"/>
						<stop  offset="1" style="stop-color:#05CFD0"/>
					</linearGradient>
					<path class="st15" d="M719.21,1246.91c4.44-6.49,7.75-13.91,9.56-22.04c7.59-34.15-13.97-67.86-48.16-75.29
						c-30.76-6.69-61.24,10.18-72.57,38.5C644.33,1218.96,676.35,1237.18,719.21,1246.91z"/>
					<linearGradient id="SVGID_12_" gradientUnits="userSpaceOnUse" x1="631.9426" y1="1242.9197" x2="661.9364" y2="1280.1134">
						<stop  offset="0" style="stop-color:#EBBDFE"/>
						<stop  offset="0.1006" style="stop-color:#E5BDFD"/>
						<stop  offset="0.2336" style="stop-color:#D4BFF9"/>
						<stop  offset="0.3847" style="stop-color:#B9C1F4"/>
						<stop  offset="0.5493" style="stop-color:#93C4EC"/>
						<stop  offset="0.7248" style="stop-color:#61C8E2"/>
						<stop  offset="0.9066" style="stop-color:#26CCD7"/>
						<stop  offset="1" style="stop-color:#05CFD0"/>
					</linearGradient>
					<path class="st16" d="M611.03,1241.59c8.43,15.61,23.36,27.58,42.09,31.66c8.42,1.83,16.82,1.89,24.82,0.44
						C651.95,1265.46,628.79,1253.46,611.03,1241.59z"/>
				</g>
			</g>
		</g>
		<path class="st14" d="M588.51,1148.47c-9.46-2.82-53.42,16.67-2.23,67.61c19.24,19.15,70.54,55.41,126.76,63.17
			c55.77,7.7,65.28-29.2,52.64-41.78c-28.2-28.07-41.38-29.21-17.94,0.68c7.11,9.06-3.54,17.37-19.15,13.86
			c-66.17-14.88-89.13-33.79-122.23-61.4c-16.46-13.72-23.21-24.95-11.78-23.77C626.09,1170.1,620.39,1157.96,588.51,1148.47z"/>
	</g>
	<path class="st12" d="M1182.95,1256.22c0,0-44.84-467.93,117.05-304.22"/>
	<path class="st14" d="M1455.95,965.48c-21.49-49.16,27.62-16.4,44.44-68.39C1500.39,897.09,1504.85,993.8,1455.95,965.48z"/>
	<path class="st14" d="M700.27,725.02c-18.88-50.22-40.51,4.72-77.54-29.51C622.73,695.5,661.84,776.23,700.27,725.02z"/>
	<path class="st14" d="M1326.3,793.91c-8.56,46.98-31.11,1.98-60.09,11.37C1266.21,805.29,1316.17,747.14,1326.3,793.91z"/>
	<path class="st14" d="M1184.82,1000.57c4.05-40.13-15.28-21.39-36.6-35.79C1148.22,964.78,1158.92,1038.96,1184.82,1000.57z"/>
</g>
<g id="Layer_5">
	<g>
		<path class="st14" d="M665.26,1383.92c-2.36,1.45-4.16,2.18-5.4,2.18c-0.9,0-2.29-0.49-4.16-1.45c0-1.11,0.03-3.01,0.1-5.72
			c0.07-2.42,0.1-4.33,0.1-5.72c0-18.43-1.52-27.64-4.57-27.64c-2.29,0-4.12,2.81-5.51,8.42c-1.04,4.09-1.56,7.86-1.56,11.33v9.56
			c0,0.48,0.16,1.19,0.47,2.13c0.31,0.94,0.47,1.65,0.47,2.13c0,1.11-0.59,2.1-1.77,2.96c-1.18,0.87-2.32,1.3-3.43,1.3
			c-1.18,0-2.36-0.59-3.53-1.77c-1.18-1.18-1.77-2.32-1.77-3.43v-19.33c0-7.83-0.87-11.74-2.6-11.74c-0.28,0-0.87,0.66-1.77,1.97
			c-4.92,6.65-7.38,13.79-7.38,21.41c0,1.11,0.14,2.72,0.42,4.83c0.28,2.11,0.42,3.69,0.42,4.73c0,1.39-0.43,2.53-1.3,3.43
			c-0.87,0.9-1.99,1.35-3.38,1.35c-1.59,0-8.4,4.18-9.37,3.07c-0.35-0.48-3.13-0.53-3.62-3.31c-0.42-2.56-4.57-6.7-4.57-7.67
			l-5.53-40.42c0-1.66,2.78-9.8,3.62-12.57c1.04-3.33,15.96-6.96,17.14-6.96c1.39,0,6.97,5.67,8.08,6.74
			c1.11,1.07-1.57,18.88-1.7,20.27c2.01-3.33,6.98-22.75,10.16-22.75c3.95,0,4.8,20.4,7.3,25.66c1.32-3.12,2.49-5.26,3.53-6.44
			c1.73-2.01,5.85-22.36,8.42-22.36c2.56,0,7.92,10.82,10.56,13.53c4.57,4.64,2.12,22.44,2.12,33.67V1383.92z"/>
		<path class="st14" d="M980.26,1383.92c-2.36,1.45-4.16,2.18-5.4,2.18c-0.9,0-2.29-0.49-4.16-1.45c0-1.11,0.03-3.01,0.1-5.72
			c0.07-2.42,0.1-4.33,0.1-5.72c0-18.43-1.52-27.64-4.57-27.64c-2.29,0-4.12,2.81-5.51,8.42c-1.04,4.09-1.56,7.86-1.56,11.33v9.56
			c0,0.48,0.16,1.19,0.47,2.13c0.31,0.94,0.47,1.65,0.47,2.13c0,1.11-0.59,2.1-1.77,2.96c-1.18,0.87-2.32,1.3-3.43,1.3
			c-1.18,0-2.36-0.59-3.53-1.77c-1.18-1.18-1.77-2.32-1.77-3.43v-19.33c0-7.83-0.87-11.74-2.6-11.74c-0.28,0-0.87,0.66-1.77,1.97
			c-4.92,6.65-7.38,13.79-7.38,21.41c0,1.11,0.14,2.72,0.42,4.83c0.28,2.11,0.42,3.69,0.42,4.73c0,1.39-0.43,2.53-1.3,3.43
			c-0.87,0.9-1.99,1.35-3.38,1.35c-1.59,0-8.4,4.18-9.37,3.07c-0.35-0.48-3.13-0.53-3.62-3.31c-0.42-2.56-4.57-6.7-4.57-7.67
			l-5.53-40.42c0-1.66,2.78-9.8,3.62-12.57c1.04-3.33,15.96-6.96,17.14-6.96c1.39,0,6.97,5.67,8.08,6.74
			c1.11,1.07-1.57,18.88-1.7,20.27c2.01-3.33,6.98-22.75,10.16-22.75c3.95,0,4.8,20.4,7.3,25.66c1.32-3.12,2.49-5.26,3.53-6.44
			c1.73-2.01,5.85-22.36,8.42-22.36c2.56,0,7.92,10.82,10.56,13.53c4.57,4.64,2.12,22.44,2.12,33.67V1383.92z"/>
		<path class="st14" d="M719.16,1340.9c0,2.15-0.26,5.39-0.78,9.72c-0.52,4.33-0.78,7.6-0.78,9.82c0,1.94,0.09,4.83,0.26,8.68
			c0.17,3.85,0.26,6.7,0.26,8.57c0,1.59-1.35,2.39-4.05,2.39c-2.77,0-4.54-1.35-5.3-4.05c-2.63,1.73-5.2,2.6-7.69,2.6
			c-2.01,0-7.06,4.44-9.62,3.36c-2.56-1.07-11.87-2.05-12.9-3.57c-2.01-2.91-1.43-14.47-1.43-20.91c0-2.22,1.65-11.9,1.79-17.44
			c0.21-4.92,1.85-18.22,1.79-20.99c2.08-1.52,10.13-2.08,11.51-2.08c3.33,0,4.2,18.26,4.2,21.51c0,1.11-0.16,2.77-0.47,4.99
			c-0.31,2.22-0.47,3.88-0.47,4.99v14.65c0,1.66,0.45,3.4,1.35,5.2c1.11,2.08,2.42,3.12,3.95,3.12c2.98,0,5.2-1.9,6.65-5.72
			c0.97-2.63,1.45-5.82,1.45-9.56l-2.76-14.44c0-1.59,0.77-16.56-0.06-18.91c1.73-1.59,6.55-3.74,8.15-3.74
			c1.66,0,5.14,8.52,6.49,9.56C722.03,1329.68,719.16,1339.31,719.16,1340.9z"/>
		<path class="st14" d="M751.96,1382.01c0,1.25-0.5,2.3-1.51,3.17c-1.01,0.86-2.17,1.3-3.48,1.3c-4.36,0-12.47-6.9-12.47-18.33
			c0-5.2-1.92-10.87-1.82-21.26c0.1-10.39-0.63-19.12-0.63-24.32c0-0.83,0.29-7.96,0.08-9.56c-0.21-1.59-1.1-13.03-1.1-13.8
			c2.29-1.52,11.19,5.61,12.51,5.61c1.52,0,4.95,8.79,6.34,9.8c1.39,1.01,2.08,2.27,2.08,3.79c0,0.76-0.17,1.66-0.52,2.7
			c-0.49,1.66-0.76,2.56-0.83,2.7c-0.9,4.3-1.35,10.39-1.35,18.29c0,12.54,0,18.98,0,19.33c0.21,8.73,0.94,14.83,2.18,18.29
			C751.79,1380.7,751.96,1381.46,751.96,1382.01z"/>
		<path class="st14" d="M1363.96,1391.01c0,1.25-0.5,2.3-1.51,3.17c-1.01,0.87-2.17,1.3-3.48,1.3c-4.36,0-12.47-6.9-12.47-18.33
			c0-5.2-1.92-10.87-1.82-21.26c0.1-10.39-0.63-19.12-0.63-24.32c0-0.83,0.29-7.96,0.08-9.56c-0.21-1.59-1.1-13.03-1.1-13.8
			c2.29-1.52,11.19,5.61,12.51,5.61c1.52,0,4.95,8.79,6.34,9.8c1.39,1.01,2.08,2.27,2.08,3.79c0,0.76-0.17,1.66-0.52,2.7
			c-0.49,1.66-0.76,2.56-0.83,2.7c-0.9,4.3-1.35,10.39-1.35,18.29c0,12.54,0,18.98,0,19.33c0.21,8.73,0.94,14.83,2.18,18.29
			C1363.79,1389.7,1363.96,1390.46,1363.96,1391.01z"/>
		<path class="st14" d="M795.49,1351.75c0,1.87-2.88,3.19-8.63,3.95c-0.14,1.53,0.38,2.42,0.38,7.83l-0.59,9.42
			c0,1.39,0.22,3.43,0.68,6.13c0.45,2.7,0.68,4.71,0.68,6.03c0,1.11-0.56,2.1-1.66,2.96c-1.11,0.87-2.22,1.3-3.33,1.3
			c-1.73,0-7.92-2.08-9.1-5.06c-0.9-2.29-0.56-5.29-0.56-7.44l0.2-19.07c-3.19-0.48-10.75-0.27-11.23-0.41
			c-1.8-0.55-4.28-2.66-4.28-3.7c0-0.28,1.25-3.89,1.39-4.24c1.18-2.94,13.04-3.05,13-3.2c-1.42-4.69,0.37-1.7,0.3-5.09l0.79-7.38
			c-0.42-0.76-1.02-11.39-1.02-11.94c0-0.9,1.33-3.8,2.4-4.52c1.07-0.73,6.44,0.09,7.41,0.09c1.45,0,2.84-0.9,4.16,0.45
			c1.32,1.35,2.37,17,2.37,18.52c0,1.66-0.26,3.31-0.78,4.94c-0.52,1.63-0.75,3.31-0.68,5.04v0.42
			C792.78,1347.31,795.49,1348.98,795.49,1351.75z"/>
		<path class="st14" d="M821.93,1347.69c0,1.25-0.28,3.01-0.83,5.3c-0.56,2.29-0.83,4.05-0.83,5.3v21.41c0,1.32,0.38,3.4,1.14,6.24
			c-1.04,1.59-2.18,2.39-3.43,2.39c-4.36,0-14.26-4.75-14.67-9.11c-0.69-8.11,0.14-11.04,0.14-15.13c0-6.86,0.28-11.23,0.83-15.87
			c-0.07-0.35,1.87-5.63,1.87-5.97c0-1.25-0.22-7.6,1.73-7.6c1.73,0,5.04-0.05,6.78,0.64
			C816.87,1336.05,821.93,1346.24,821.93,1347.69z M820.1,1323.28c0,1.53-0.52,2.77-1.56,3.74c-1.04,0.97-2.32,1.45-3.84,1.45
			c-1.8,0-3.48-0.62-5.04-1.87c-1.56-1.25-6.29-6.32-6.29-8.13c0-1.52,0.14-6.72,1.22-7.69c1.07-0.97,3.99-2.79,5.58-2.79
			c1.87,0,4.32-0.03,5.78,1.18C817.4,1310.39,820.1,1321.41,820.1,1323.28z"/>
		<path class="st14" d="M1172.93,1347.69c0,1.25-0.28,3.01-0.83,5.3c-0.56,2.29-0.83,4.05-0.83,5.3v21.41c0,1.32,0.38,3.4,1.14,6.24
			c-1.04,1.59-2.18,2.39-3.43,2.39c-4.36,0-14.26-4.75-14.67-9.11c-0.69-8.11,0.14-11.04,0.14-15.13c0-6.86,0.28-11.23,0.83-15.87
			c-0.07-0.35,1.87-5.63,1.87-5.97c0-1.25-0.22-7.6,1.73-7.6c1.73,0,5.04-0.05,6.78,0.64
			C1167.87,1336.05,1172.93,1346.24,1172.93,1347.69z M1171.1,1323.28c0,1.53-0.52,2.77-1.56,3.74c-1.04,0.97-2.32,1.45-3.84,1.45
			c-1.8,0-3.48-0.62-5.04-1.87c-1.56-1.25-6.29-6.32-6.29-8.13c0-1.52,0.14-6.72,1.22-7.69c1.07-0.97,3.99-2.79,5.58-2.79
			c1.87,0,4.32-0.03,5.78,1.18C1168.4,1310.39,1171.1,1321.41,1171.1,1323.28z"/>
		<path class="st14" d="M902.93,1347.69c0,1.25-0.28,3.01-0.83,5.3c-0.56,2.29-0.83,4.05-0.83,5.3v21.41c0,1.32,0.38,3.4,1.14,6.24
			c-1.04,1.59-2.18,2.39-3.43,2.39c-4.36,0-14.26-4.75-14.67-9.11c-0.69-8.11,0.14-11.04,0.14-15.13c0-6.86,0.28-11.23,0.83-15.87
			c-0.07-0.35,1.87-5.63,1.87-5.97c0-1.25-0.22-7.6,1.73-7.6c1.73,0,5.04-0.05,6.78,0.64
			C897.87,1336.05,902.93,1346.24,902.93,1347.69z M901.1,1323.28c0,1.53-0.52,2.77-1.56,3.74c-1.04,0.97-2.32,1.45-3.84,1.45
			c-1.8,0-3.48-0.62-5.04-1.87c-1.56-1.25-6.29-6.32-6.29-8.13c0-1.52,0.14-6.72,1.22-7.69c1.07-0.97,3.99-2.79,5.58-2.79
			c1.87,0,4.32-0.03,5.78,1.18C898.4,1310.39,901.1,1321.41,901.1,1323.28z"/>
		<path class="st14" d="M869.59,1322.85c0,1.53-0.21,3.5-0.62,5.92c-0.56,3.26-0.9,5.2-1.04,5.82c-0.21,2.15-0.54,8.49-0.99,19.02
			c-0.45,10.53-0.68,16.35-0.68,17.46c0,6.65,0.73,11.64,2.18,14.97c-1.18,1.94-2.53,2.91-4.05,2.91c-1.59,0-3.01-0.61-4.26-1.82
			c-1.25-1.21-1.94-2.61-2.08-4.21c-3.26,2.98-6.58,4.47-9.98,4.47c-5.06,0-13.32-3.74-16.09-7.27c-2.56-3.19-1.87-12.14-1.87-17.34
			c0-6.1-0.33-12.67,2.16-18.97c3.19-7.97,6.16-14.04,11.29-14.04c3.05,0,7.74,2.65,10.93,5.35c0.35-3.26-2.24-11.17-2.24-24.55
			c0-1.25,3.3-11.34,5.17-11.34c2.22,0,8.88-0.71,10.5,0.39C869.57,1300.73,869.59,1320.63,869.59,1322.85z M857.54,1358.08
			c0-2.35-0.52-4.5-1.56-6.44c-1.32-2.35-3.05-3.53-5.2-3.53c-3.12,0-5.51,3.08-7.17,9.25c-1.25,4.43-1.87,8.8-1.87,13.09
			c0,6.44,1.87,9.67,5.61,9.67c3.88,0,6.69-2.87,8.42-8.63C856.95,1367.61,857.54,1363.14,857.54,1358.08z"/>
		<path class="st14" d="M1030.99,1371.17c0,3.47-2.36,6.17-7.07,8.11c-3.67,1.52-15.02,2.7-19.04,2.7
			c-10.67,0-12.85-12.8-12.85-24.92c0-4.99,1.21-12.9,3.64-18.99c2.98-7.48,6.19-12.01,10.41-12.01c3.81,0,9.89-0.67,14.29,2.72
			c4.4,3.4,9.36,18.77,9.36,22.44c0,4.57-2.04,8.21-6.13,10.91c-3.6,2.43-8.29,0.48-13.28,0.48c-0.97,0-5.69-4.37-7.83-5.55
			c0.28,6.58,5.77,14.05,9.37,14.05c3.05,0,6.04,1.9,8.99,0.16c2.94-1.73,4.83-2.6,5.66-2.6
			C1029.49,1368.68,1030.99,1369.51,1030.99,1371.17z M1019.66,1351.53c0-1.73-0.5-3.38-1.51-4.94c-1.01-1.56-2.34-2.34-4-2.34
			c-2.29,0-4.05,1-5.3,3.01c-1.04,1.73-1.56,3.78-1.56,6.13c0,1.32,0.45,2.39,1.35,3.22c0.9,0.83,2.04,1.25,3.43,1.25
			C1017.13,1357.87,1019.66,1355.76,1019.66,1351.53z"/>
		<path class="st14" d="M1093.48,1386.77c-1.04,1.59-2.32,2.39-3.84,2.39c-1.18,0-3.12-0.69-5.82-2.08v-1.25
			c0-1.52,0.05-3.77,0.16-6.75c0.1-2.98,0.16-5.16,0.16-6.55c0-14.83-1.82-25.79-6.26-25.79c-1.25,0-5.74-2.02-7.26,2.91
			c-2.28,7.38-4.77,16.68-4.77,25.07c0,1.18,0.22,2.93,0.68,5.25c0.45,2.32,0.68,4.07,0.68,5.25c0,0.97-0.45,1.77-1.35,2.39
			c-0.9,0.62-1.87,0.94-2.91,0.94c-4.16,0-16.89-3.03-16.89-8.29l1.32-19.07c0-0.55,1.91-3.22,2.05-4.3
			c0.14-1.07,0.21-2.28,0.21-2.84c0-0.83-0.91-4.81-1.15-6.4c-0.24-1.59,0.82-8.67,0.82-9.44c0-1.11,1.33-9.29,2.61-10.29
			c1.28-1,8.47-1.9,9.51-1.9c1.52,0,2.29,9.55,3.89,11.28l0.87,11.66c2.56-4.09-0.99-16.55,2.75-16.55c2.42,0,12.09,0.99,14.8,2.65
			c2.7,1.66,7.04,11.03,8.29,13.11c2.84,5.27,1.5,14.96,1.5,23.55L1093.48,1386.77z"/>
		<path class="st14" d="M1282.48,1386.77c-1.04,1.59-2.32,2.39-3.84,2.39c-1.18,0-3.12-0.69-5.82-2.08v-1.25
			c0-1.52,0.05-3.77,0.16-6.75c0.1-2.98,0.16-5.16,0.16-6.55c0-14.83-1.82-25.79-6.26-25.79c-1.25,0-5.74-2.02-7.26,2.91
			c-2.28,7.38-4.77,16.68-4.77,25.07c0,1.18,0.22,2.93,0.68,5.25c0.45,2.32,0.68,4.07,0.68,5.25c0,0.97-0.45,1.77-1.35,2.39
			c-0.9,0.62-1.87,0.94-2.91,0.94c-4.16,0-16.89-3.03-16.89-8.29l1.32-19.07c0-0.55,1.91-3.22,2.05-4.3
			c0.14-1.07,0.21-2.28,0.21-2.84c0-0.83-0.91-4.81-1.15-6.4c-0.24-1.59,0.82-8.67,0.82-9.44c0-1.11,1.33-9.29,2.61-10.29
			c1.28-1,8.47-1.9,9.51-1.9c1.52,0,2.29,9.55,3.89,11.28l0.87,11.66c2.56-4.09-0.99-16.55,2.75-16.55c2.42,0,12.09,0.99,14.8,2.65
			c2.7,1.66,7.04,11.03,8.29,13.11c2.84,5.27,1.5,14.96,1.5,23.55L1282.48,1386.77z"/>
		<path class="st14" d="M1147.36,1375.07c0,3.26-1.39,6.1-4.16,8.52c-3.05,2.63-7.14,3.95-12.26,3.95
			c-2.22,0.07-4.61-0.38-7.17-1.35c-8.31-3.12-12.47-5.65-12.47-7.59c0-3.05-2.16-8.72,2.2-8.72c0.62,0,3.65,1.02,4.34,1.09
			c0.21,2.08,3.84,6.9,6.96,8.15c2.7,1.11,8.46,0.97,10.95,0.76c3.17-0.26,1.32-5.83,1.32-6.08c0-0.24-4.28-1.57-6.91-2.4
			c-2.98-0.9-5.63-2.01-5.97-2.15c-7.9-4.71-13.43-8.42-13.43-15.07c0-4.02-3.2-18.58-0.91-21.97c2.56-3.74,8.32-6.2,12.13-6.2
			c2.84,0,8.25,3.87,11.89,6.09c3.64,2.22,9.03,10.13,9.86,12.7c0.55,1.8,0.63,4.08,0.63,5.26c0,1.25-0.17,2.29-0.52,3.12
			c-0.42,1.04-0.83,2.08-1.25,3.12c-1.32,0.9-1.45,1.55-2.76,1.55c-0.69,0-3.04-0.63-4.67-1.5c-1.63-0.87-2.44-1.61-2.44-2.23
			c0-0.28,0.42-1.18,1.25-2.7c0.48-0.9,0.73-1.66,0.73-2.29c0-4.16-3.4-7.22-6.66-7.22c-1.94,0-4.81,2.43-5.85,4.93
			c-0.76,1.94,2.41,8.16,2.41,10.38c0,2.77,0.4,2.5,4.34,4.72c3.6,1.59,7.04,1.46,10.71,3.13
			C1143.61,1366.84,1147.36,1373.2,1147.36,1375.07z"/>
		<path class="st14" d="M1224.16,1363.16c0,6.24-1.56,11.57-4.68,16c-3.6,5.06-8.38,7.59-14.34,7.59c-6.1,0-17.02-2.47-20.14-6.63
			c-2.84-3.67-3.87-12.01-3.87-18.31c0-6.23-0.84-18.77,2.27-24.32c3.6-6.58,6.34-11.48,12.09-11.48c1.8,0,12.74-0.23,15.44,1.37
			C1218.7,1332.02,1224.16,1352.63,1224.16,1363.16z M1215.02,1362.95c0-10.6-2.56-15.9-7.69-15.9c-3.67,0-6.44,2.25-8.31,6.75
			c-1.39,3.4-2.08,7.24-2.08,11.54c0,9.21,2.74,13.82,8.21,13.82c3.53,0,6.17-1.9,7.9-5.72
			C1214.36,1370.54,1215.02,1367.04,1215.02,1362.95z"/>
		<path class="st14" d="M1338.81,1361.38c0,8.94-1.07,24.83-1.62,28.51c-0.35,2.15-1.8,3.22-4.36,3.22c-3.88,0-5.61-1.94-5.2-5.82
			c-3.47,1.66-7.07,2.49-10.81,2.49c-3.6,0-7.03-0.9-10.29-2.7c-3.88-2.15-5.82-4.88-5.82-8.21c0-3.26-2.52-10.25,1.91-13.09
			c4.02-2.56,9.77-3.45,13.3-3.45l7.25-2.13l1.97-5.89c0.07-7.27-0.1-6.57-4.47-6.57c-5.47,0-8.61,2.56-8.61,7.69
			c0,1.73-3.34,2.6-5.28,2.6c-1.18,0-5.57-2.11-6.85-3.19c-1.28-1.07-1.92-5.55-1.92-6.72c0-3.88,0.52-6.09,3.29-8.58
			c2.77-2.49,9.33-4.53,13.21-4.53C1327.56,1335,1338.81,1343.72,1338.81,1361.38z M1327.53,1374.72c0-1.38-1.04-2.08-3.12-2.08
			c-8.66,0-12.99,2.04-12.99,6.13c0,2.22,1.91,3.33,5.72,3.33c2.35,0,4.57-0.66,6.65-1.97
			C1326.28,1378.66,1327.53,1376.86,1327.53,1374.72z"/>
	</g>
	<g>
		<path class="st14" d="M1117.45,1450.75c0,1.87-2.88,3.19-8.63,3.95c-0.14,1.53,0.38,2.42,0.38,7.83l-0.59,9.42
			c0,1.39,0.22,3.43,0.68,6.13c0.45,2.7,0.68,4.71,0.68,6.03c0,1.11-0.56,2.1-1.66,2.96c-1.11,0.87-2.22,1.3-3.33,1.3
			c-1.73,0-7.92-2.08-9.1-5.06c-0.9-2.29-0.56-5.29-0.56-7.44l0.2-19.07c-3.19-0.48-10.75-0.27-11.23-0.41
			c-1.8-0.55-4.28-2.66-4.28-3.7c0-0.28,1.25-3.89,1.39-4.24c1.18-2.94,13.04-3.05,13-3.2c-1.42-4.69,0.37-1.7,0.3-5.09l0.79-7.38
			c-0.42-0.76-1.02-11.39-1.02-11.94c0-0.9,1.33-3.8,2.4-4.52c1.07-0.73,6.44,0.09,7.41,0.09c1.45,0,2.84-0.9,4.16,0.45
			c1.32,1.35,2.37,17,2.37,18.52c0,1.66-0.26,3.31-0.78,4.94c-0.52,1.63-0.75,3.31-0.68,5.04v0.42
			C1114.75,1446.31,1117.45,1447.98,1117.45,1450.75z"/>
		<path class="st14" d="M973.45,1441.75c0,1.87-2.88,3.19-8.63,3.95c-0.14,1.53,0.38,2.42,0.38,7.83l-0.59,9.42
			c0,1.39,0.22,3.43,0.68,6.13c0.45,2.7,0.68,4.71,0.68,6.03c0,1.11-0.56,2.1-1.66,2.96c-1.11,0.87-2.22,1.3-3.33,1.3
			c-1.73,0-7.92-2.08-9.1-5.06c-0.9-2.29-0.56-5.29-0.56-7.44l0.2-19.07c-3.19-0.48-10.75-0.27-11.23-0.41
			c-1.8-0.55-4.28-2.66-4.28-3.7c0-0.28,1.25-3.89,1.39-4.24c1.18-2.94,13.04-3.05,13-3.2c-1.42-4.69,0.37-1.7,0.3-5.09l0.79-7.38
			c-0.42-0.76-1.02-11.39-1.02-11.94c0-0.9,1.33-3.8,2.4-4.52c1.07-0.73,6.44,0.09,7.41,0.09c1.45,0,2.84-0.9,4.16,0.45
			c1.32,1.35,2.37,17,2.37,18.52c0,1.66-0.26,3.31-0.78,4.94c-0.52,1.63-0.75,3.31-0.68,5.04v0.42
			C970.75,1437.31,973.45,1438.98,973.45,1441.75z"/>
		<path class="st14" d="M1008.89,1446.69c0,1.25-0.28,3.01-0.83,5.3c-0.56,2.29-0.83,4.05-0.83,5.3v21.41c0,1.32,0.38,3.4,1.14,6.24
			c-1.04,1.59-2.18,2.39-3.43,2.39c-4.36,0-14.26-4.75-14.67-9.11c-0.69-8.11,0.14-11.04,0.14-15.13c0-6.86,0.28-11.23,0.83-15.87
			c-0.07-0.35,1.87-5.63,1.87-5.97c0-1.25-0.22-7.6,1.73-7.6c1.73,0,5.04-0.05,6.78,0.64
			C1003.84,1435.05,1008.89,1445.24,1008.89,1446.69z M1007.07,1422.28c0,1.53-0.52,2.77-1.56,3.74c-1.04,0.97-2.32,1.45-3.84,1.45
			c-1.8,0-3.48-0.62-5.04-1.87c-1.56-1.25-6.29-6.32-6.29-8.13c0-1.52,0.14-6.72,1.22-7.69c1.07-0.97,3.99-2.79,5.58-2.79
			c1.87,0,4.32-0.03,5.78,1.18C1004.37,1409.39,1007.07,1420.41,1007.07,1422.28z"/>
		<path class="st14" d="M1064.33,1474.07c0,3.26-1.39,6.1-4.16,8.52c-3.05,2.63-7.14,3.95-12.26,3.95
			c-2.22,0.07-4.61-0.38-7.17-1.35c-8.31-3.12-12.47-5.65-12.47-7.59c0-3.05-2.16-8.72,2.21-8.72c0.62,0,3.65,1.02,4.34,1.09
			c0.21,2.08,3.84,6.9,6.96,8.15c2.7,1.11,8.46,0.97,10.95,0.76c3.17-0.26,1.32-5.83,1.32-6.08c0-0.24-4.28-1.57-6.91-2.4
			c-2.98-0.9-5.63-2.01-5.97-2.15c-7.9-4.71-13.43-8.42-13.43-15.07c0-4.02-3.2-18.58-0.91-21.97c2.56-3.74,8.32-6.2,12.13-6.2
			c2.84,0,8.25,3.87,11.89,6.09c3.64,2.22,9.03,10.13,9.86,12.7c0.55,1.8,0.63,4.08,0.63,5.26c0,1.25-0.17,2.29-0.52,3.12
			c-0.42,1.04-0.83,2.08-1.25,3.12c-1.32,0.9-1.45,1.55-2.76,1.55c-0.69,0-3.04-0.63-4.67-1.5c-1.63-0.87-2.44-1.61-2.44-2.23
			c0-0.28,0.42-1.18,1.25-2.7c0.48-0.9,0.73-1.66,0.73-2.29c0-4.16-3.4-7.22-6.66-7.22c-1.94,0-4.81,2.43-5.85,4.93
			c-0.76,1.94,2.41,8.16,2.41,10.38c0,2.77,0.4,2.5,4.34,4.72c3.6,1.59,7.04,1.46,10.71,3.13
			C1060.58,1465.84,1064.33,1472.2,1064.33,1474.07z"/>
		<path class="st14" d="M877.78,1442.38c0,8.94-1.07,24.83-1.62,28.51c-0.35,2.15-1.8,3.22-4.36,3.22c-3.88,0-5.61-1.94-5.2-5.82
			c-3.47,1.66-7.07,2.49-10.81,2.49c-3.6,0-7.03-0.9-10.29-2.7c-3.88-2.15-5.82-4.88-5.82-8.21c0-3.26-2.52-10.25,1.91-13.09
			c4.02-2.56,9.77-3.45,13.3-3.45l7.25-2.13l1.97-5.89c0.07-7.27-0.1-6.57-4.47-6.57c-5.47,0-8.61,2.56-8.61,7.69
			c0,1.73-3.34,2.6-5.28,2.6c-1.18,0-5.57-2.11-6.85-3.19c-1.28-1.07-1.92-5.55-1.92-6.72c0-3.88,0.52-6.09,3.29-8.58
			c2.77-2.49,9.33-4.53,13.21-4.53C866.53,1416,877.78,1424.72,877.78,1442.38z M866.49,1455.72c0-1.38-1.04-2.08-3.12-2.08
			c-8.66,0-12.99,2.04-12.99,6.13c0,2.22,1.91,3.33,5.72,3.33c2.35,0,4.57-0.66,6.65-1.97
			C865.24,1459.66,866.49,1457.86,866.49,1455.72z"/>
		<path class="st14" d="M927.55,1444.84c0,0.49-0.07,1.25-0.21,2.29c-1.45,2.08-2.98,3.12-4.57,3.12c-1.32,0-2.49-0.76-3.53-2.29
			c-0.14-3.12-3.81-6.26-5.89-6.26c-1.25,0-4.35,5.46-6.15,12.04c-0.83,2.91,0.73,4.99,0.73,10.19c0,4.92,2.41,9.28,2.9,10.32
			c0.55,1.32,0.83,2.22,0.83,2.7c0,1.18-0.54,2.13-1.61,2.86c-1.07,0.73-2.27,1.09-3.59,1.09c-5.3,0-13.36-2.44-13.84-2.91
			c-3.54-3.54-0.11-14.27-0.46-21.23c-0.35-6.96-0.72-21.45-0.72-24.92c0-3.12,5.62-6.85,9.36-6.85c2.22,0,8.87,12.5,9.7,13.82
			c1.94-2.15,1.95-9.14,4.38-9.14c1.66,0,5.62-0.14,7.15,0.76c1.04,0.56,2.65,5.3,4.03,7.14
			C927.45,1439.41,927.55,1443.81,927.55,1444.84z"/>
		<g>
			<g>
				<path class="st1" d="M1175.2,1487.09h0.11c0-0.01,0-0.01,0-0.02v0c0-21.32,17.28-38.6,38.6-38.6l0,0v-0.26l0,0
					c-21.23,0-38.45-17.13-38.6-38.32h-0.12c-0.15,21.16-17.31,38.26-38.49,38.32v0.27c21.27,0.06,38.5,17.32,38.5,38.6v0
					C1175.21,1487.07,1175.2,1487.08,1175.2,1487.09z"/>
			</g>
		</g>
		<g>
			<g>
				<path class="st1" d="M779.2,1487.09h0.11c0-0.01,0-0.01,0-0.02v0c0-21.32,17.28-38.6,38.6-38.6l0,0v-0.26l0,0
					c-21.23,0-38.45-17.13-38.6-38.32h-0.12c-0.15,21.16-17.31,38.26-38.49,38.32v0.27c21.27,0.06,38.5,17.32,38.5,38.6v0
					C779.21,1487.07,779.2,1487.08,779.2,1487.09z"/>
			</g>
		</g>
	</g>
	<circle class="st17" cx="966.54" cy="1193.31" r="541.93"/>
</g>
<g id="Layer_3">
	<path class="st14" d="M1108.83,693.8c11.27,2.37,26.55,8.44,33.02,13.95c3.13,2.67,1.33,9.46-3.49,7.08
		c-4.97-2.45-10.83-1.76-12.76,3.66c-7.04,19.73-29.23,69.6-52.56,103.41c-2.88,4.18,3.31,5.54,5.42,6.44
		c10.63,4.5,6.95,10.92-1.83,7.91c-12.31-4.22-18.39-6.35-27.13-10.65c-9.07-4.45-3.55-12.91,2.9-9.47
		c0.96,0.51,4.52,2.96,6.59,1.39c15.09-11.42,55.66-93.15,53.19-107.89c-0.69-4.1-5.21-5.87-8.52-6.68
		C1090.34,699.68,1098.29,691.58,1108.83,693.8z"/>
	<path class="st18" d="M1153.85,717.89c5.77,3.87-7.35,9.98-5.03,14.16c3.75,6.75,9.35-1.93,11.08-5.38
		c1.03-2.05,5.7-11.05,2.28-13.89C1153.95,705.91,1149.61,715.06,1153.85,717.89z"/>
	<path class="st14" d="M1118.46,805.05c-5.81,10.08-21.99,34.79-15.11,43.9c7.34,9.7,12.99-15.87,19.69-21.68s11.51-6.57,9,2.44
		c-1.32,4.75-11.03,27.24-4.48,30.07c7.6,3.29,15.38-17.58,21.09-22.22c7.31-5.95,14.02-5.47,11.39,3.63
		c-0.94,3.24-16.58,24.38-6.98,28.19c6.13,2.43,18.26-22.78,20.37-31.29c3.76-15.23-17.99-19.99-27.27-14.04
		c0,0-3.38-21.12-19.36-12.88C1126.8,811.16,1129.99,785.06,1118.46,805.05z"/>
	<g>
		<g>
			<path class="st14" d="M1003.37,750.45c0-8.8-10.15-16.02-22.43-14.75s-17.56,7.69-18.44,17.35c-0.89,9.65,7.41,9.29,8.67,11.36
				s-4.3,1.26-4.71,4.56c-0.47,3.85-1.95,8.85,2.09,8.61c4.5-0.27,0.49-7.7,2.84-7.24c2.15,0.43,0.01,7.08,4.08,6.97
				c4.23-0.11-0.35-6.52,3.53-6.8c4.62-0.33-3.03,7.17,4.31,6.64c4.12-0.3,0.18-6.29,3.56-6.15c3.01,0.13-1.74,6.48,2.87,6.48
				c5.84,0,0.95-6.57,3.02-6.69c2.72-0.16,0.05,6.68,3.36,6.7c2.05,0,1.73-2.69,1.73-9.5c0-3.11-5.84-0.09-4.27-4.08
				S1003.37,759.25,1003.37,750.45z M976.64,754.63c-3.31,0.25-5.32-0.72-5.7-3.33c-0.24-1.65,0.76-5.39,4.51-5.68
				C978.64,745.38,980.47,754.34,976.64,754.63z M988.67,755.26c-4.37-0.33-2.28-10.56,1.35-10.28c4.28,0.32,5.42,4.6,5.15,6.48
				C994.75,754.45,992.45,755.55,988.67,755.26z"/>
		</g>
	</g>
	<g>
		<g>
			<path class="st14" d="M843,832.33c-14.66-20.23-24.09-37.77-29.99-52.71c3.82-0.94,6.89-1.57,8.67-1.91
				c9.25-1.73,6.48-9.83-3.78-7.53c-2.17,0.49-4.76,1.13-7.64,1.93c-6.63-19.72-6.86-34.33-5.27-44.02
				c1.57-9.6-12.69-13.31-14.96,4.65c-1.93,15.3,1.09,30.02,6.54,43.69c-4.4,1.56-8.94,3.36-13.32,5.38
				c-9.88-26.97-9.61-46.47-7.54-59.13c1.86-11.35-14.88-16.63-17.57,4.59c-2.39,18.88,4.22,40.77,13.44,60.79
				c-10.98,6.96-18.28,15.61-14.64,25.6c2.27,6.24,9.82,4.16,13.25,2.86c3.43-1.3,7.36-9.06,2.15-5.99
				c-5.2,3.07-10.61,3.85-9.03-2.21c1.36-5.22,5.7-9.76,11.46-13.62c15.21,30.56,35.04,55.2,35.04,55.2
				c6.87,10.56,16.51,6.11,8.67-4.71c-15.54-21.45-25.86-40.25-32.57-56.54c4.48-2.02,9.19-3.75,13.69-5.22
				c10.08,21.54,25.4,40.09,35.27,53.6C841.19,845.67,849.63,841.48,843,832.33z"/>
		</g>
	</g>
	<path class="st14" d="M866.85,826.65c-8.12-9.96-24.16-36.07-22.81-50.2c1.35-14.13,13.11-12.07,13.18,1.34
		c0.04,7.69,8.03,31.79,16.53,45.54C880.63,834.47,874.03,835.45,866.85,826.65z"/>
	<path class="st14" d="M890.48,797.81c-16.78-35.51-20.2-70.83-19.53-93.18c0.87-28.78,17.32-17.98,16.73,1.54
		c-1.12,37.01-0.89,59.2,11.04,87.43C902.51,802.58,896.07,809.65,890.48,797.81z"/>
	<g>
		<g>
			<path class="st14" d="M859.62,748.27c-1.63-5.32-7.78-8.31-13.74-6.69s-9.47,7.24-7.84,12.56c1.63,5.32,7.78,8.31,13.74,6.69
				C857.74,759.21,861.25,753.58,859.62,748.27z M848.92,745.83c0.37-0.65,0.96-1.27,1.93-1.58c0.62,0.83,0.94,1.38,1.2,1.91
				c0.25,0.53,0.36,1.01,0.39,1.52c0.02,0.5-0.05,1.03-0.25,1.61c-0.21,0.59-0.51,1.2-1.13,2.01c-0.97-0.33-1.54-0.88-1.96-1.47
				c-0.4-0.6-0.62-1.26-0.66-1.95C848.4,747.2,848.56,746.48,848.92,745.83z M843.17,746.52c0.37-0.65,0.96-1.27,1.93-1.58
				c0.62,0.83,0.94,1.38,1.2,1.91c0.25,0.53,0.36,1.01,0.39,1.52c0.02,0.5-0.05,1.03-0.25,1.61c-0.21,0.59-0.51,1.2-1.13,2.01
				c-0.97-0.33-1.54-0.88-1.96-1.47c-0.4-0.6-0.62-1.26-0.66-1.95C842.65,747.89,842.81,747.17,843.17,746.52z M855.68,757.65
				c-1.68,1.92-4.24,2.96-6.68,3.04c-2.46,0.1-4.92-0.64-6.84-2.16c-0.95-0.77-1.77-1.74-2.26-2.86c-0.49-1.11-0.65-2.36-0.31-3.45
				c1.44,1.75,2.97,2.42,4.52,2.91c1.55,0.46,3.14,0.63,4.67,0.56c1.53-0.08,2.98-0.37,4.36-1.05c1.4-0.67,2.71-1.87,4.12-3.64
				C857.92,753.14,857.37,755.74,855.68,757.65z"/>
		</g>
	</g>
	<g>
		<g>
			<path class="st14" d="M911.99,817.46c-1.63-5.32-7.78-8.31-13.74-6.69s-9.47,7.24-7.84,12.56c1.63,5.32,7.78,8.31,13.74,6.69
				C910.11,828.39,913.62,822.77,911.99,817.46z M900.6,825.9c-0.37,0.65-0.96,1.27-1.93,1.58c-0.62-0.83-0.94-1.38-1.2-1.91
				c-0.25-0.53-0.36-1.01-0.39-1.52c-0.02-0.5,0.05-1.03,0.25-1.61c0.21-0.59,0.51-1.2,1.13-2.01c0.97,0.33,1.54,0.88,1.96,1.47
				c0.4,0.6,0.62,1.26,0.66,1.95C901.12,824.53,900.96,825.25,900.6,825.9z M906.35,825.21c-0.37,0.65-0.96,1.27-1.93,1.58
				c-0.62-0.83-0.94-1.38-1.2-1.91c-0.25-0.53-0.36-1.01-0.39-1.52c-0.02-0.5,0.05-1.03,0.25-1.61c0.21-0.59,0.51-1.2,1.13-2.01
				c0.97,0.33,1.54,0.88,1.96,1.47c0.4,0.6,0.62,1.26,0.66,1.95C906.87,823.84,906.71,824.55,906.35,825.21z M909.94,819.5
				c-1.44-1.75-2.97-2.42-4.52-2.91c-1.55-0.46-3.14-0.63-4.67-0.56c-1.53,0.08-2.98,0.37-4.36,1.05c-1.4,0.67-2.71,1.87-4.12,3.64
				c-0.66-2.13-0.12-4.73,1.57-6.64c1.68-1.92,4.24-2.96,6.68-3.04c2.46-0.1,4.92,0.64,6.84,2.16c0.95,0.77,1.77,1.74,2.26,2.86
				C910.11,817.16,910.28,818.41,909.94,819.5z"/>
		</g>
	</g>
	<path class="st14" d="M1004.94,763.87c0,0,28.68-10.84,30.79-20.26c2.89-12.88-6.58-22.08-11.37-8.34
		c2.42-7.87-8.62-21.28-14.11-3.44C1007.24,741.66,1016.53,749.21,1004.94,763.87z"/>
	<path class="st14" d="M958.23,763.74c0,0-28.58-10.8-30.69-20.19c-2.88-12.84,6.56-22.01,11.33-8.32
		c-2.41-7.84,8.59-21.21,14.06-3.43C955.94,741.6,946.68,749.12,958.23,763.74z"/>
</g>
</svg>
