<?xml version="1.0" standalone="no"?>
<!DOCTYPE svg PUBLIC "-//W3C//DTD SVG 20010904//EN"
 "http://www.w3.org/TR/2001/REC-SVG-20010904/DTD/svg10.dtd">
<svg version="1.0" xmlns="http://www.w3.org/2000/svg"
 width="715.000000pt" height="349.000000pt" viewBox="0 0 715.000000 349.000000"
 preserveAspectRatio="xMidYMid meet">

<g transform="translate(0.000000,349.000000) scale(0.100000,-0.100000)"
fill="#ebbdfe" stroke="none">
<path d="M1390 3010 c-17 -17 -520 -1016 -520 -1033 0 -3 -17 -43 -39 -89 -58
-124 -147 -353 -175 -450 -45 -156 -58 -237 -58 -374 0 -113 3 -140 24 -201
50 -141 139 -237 293 -312 92 -44 93 -45 200 -75 77 -22 211 -49 305 -61 147
-18 504 -25 788 -15 299 10 393 16 712 46 323 29 541 53 890 99 63 8 187 23
275 35 88 11 212 27 275 35 117 16 354 45 580 71 157 18 567 50 895 69 458 27
680 43 697 50 23 9 31 35 16 52 -10 12 -38 14 -157 10 -177 -6 -658 -33 -836
-47 -401 -32 -631 -54 -845 -80 -91 -12 -217 -27 -280 -35 -104 -13 -222 -28
-545 -71 -60 -8 -150 -19 -200 -24 -49 -6 -146 -17 -215 -25 -299 -35 -380
-44 -455 -50 -44 -3 -120 -10 -170 -15 -49 -6 -224 -19 -388 -30 -1004 -67
-1592 49 -1731 343 -40 85 -49 147 -43 282 11 255 110 519 472 1260 70 143
158 324 197 403 38 79 83 159 101 178 24 28 28 39 20 52 -15 26 -58 27 -83 2z"/>
<path d="M3346 2474 c-42 -42 -112 -239 -231 -654 -23 -80 -143 -444 -159
-482 -17 -39 -15 -38 -123 -52 -140 -19 -261 -140 -222 -221 25 -51 60 -67
201 -91 161 -28 233 -31 242 -8 17 44 -25 61 -214 85 -95 12 -150 31 -150 52
0 44 126 107 214 107 81 0 111 32 155 160 32 93 117 370 175 575 52 181 134
423 158 466 11 20 18 45 16 55 -4 25 -41 30 -62 8z"/>
<path d="M5786 1877 c-11 -8 -17 -23 -14 -38 3 -22 7 -24 57 -24 40 0 57 4 64
17 26 41 -62 78 -107 45z"/>
<path d="M6574 1607 c-16 -12 -76 -70 -132 -129 -109 -112 -174 -164 -191
-153 -6 3 -11 28 -11 54 0 53 -24 86 -57 79 -16 -3 -18 -14 -16 -92 2 -76 5
-92 24 -112 52 -55 115 -20 302 165 150 149 169 179 128 200 -14 8 -25 5 -47
-12z"/>
<path d="M5704 1513 c-20 -21 -47 -80 -104 -231 -48 -128 -49 -166 -3 -160 29
3 31 8 103 198 18 47 44 106 58 132 22 39 24 49 13 62 -17 21 -45 20 -67 -1z"/>
<path d="M5137 1442 c-90 -86 -171 -149 -227 -177 -27 -14 -51 -25 -53 -25
-12 0 -27 62 -30 121 -4 73 -10 89 -36 89 -30 0 -41 -22 -41 -85 0 -120 44
-205 107 -205 28 0 166 77 226 127 142 118 195 190 151 207 -28 11 -35 7 -97
-52z"/>
<path d="M3890 1366 c-190 -79 -303 -224 -227 -293 50 -46 105 -50 312 -23
147 19 179 35 155 81 -13 23 -26 23 -127 4 -117 -23 -235 -30 -261 -16 -21 11
-21 14 -8 40 50 96 270 192 338 147 24 -15 27 -15 49 3 l24 19 -21 29 c-20 26
-26 28 -100 30 -63 2 -90 -2 -134 -21z"/>
<path d="M1900 1243 c-97 -11 -225 -77 -260 -135 -25 -42 -26 -109 -2 -131 43
-39 87 -47 250 -47 148 0 160 1 178 21 14 15 16 24 8 37 -10 15 -36 18 -182
22 -191 6 -208 11 -181 58 9 16 41 41 80 61 55 27 81 34 153 38 88 6 112 17
100 47 -6 15 -65 37 -94 34 -8 -1 -31 -3 -50 -5z"/>
</g>
</svg>
